# Blender 4.1.0
# www.blender.org
o Plane.005
v -5.000000 0.000000 5.000000
v 5.000000 0.000000 5.000000
v -5.000000 0.000000 -5.000000
v 5.000000 0.000000 -5.000000
v -5.000000 0.000000 -1.666667
v -5.000000 0.000000 1.666667
v -1.666667 0.000000 5.000000
v 1.666667 0.000000 5.000000
v 5.000000 0.000000 1.666667
v 5.000000 0.000000 -1.666667
v 1.666667 0.000000 -5.000000
v -1.666667 0.000000 -5.000000
v -1.666667 0.000000 1.666667
v -1.666667 0.000000 -1.666667
v 1.666667 0.000000 1.666667
v 1.666667 0.000000 -1.666667
v -5.000000 10.000000 1.666667
v -5.000000 10.000000 5.000000
v 1.666667 10.000000 5.000000
v 5.000000 10.000000 5.000000
v 5.000000 10.000000 -1.666667
v 5.000000 10.000000 -5.000000
v -1.666667 10.000000 -5.000000
v -5.000000 10.000000 -5.000000
v -5.000000 10.000000 -1.666667
v -1.666667 10.000000 5.000000
v 5.000000 10.000000 1.666667
v 1.666667 10.000000 -5.000000
v -1.666667 10.000000 -1.666667
v -1.666667 10.000000 1.666667
v 1.666667 10.000000 -1.666667
v 1.666667 10.000000 1.666667
vn -1.0000 -0.0000 -0.0000
vn -0.0000 -0.0000 -1.0000
vn -0.0000 1.0000 -0.0000
vn 1.0000 -0.0000 -0.0000
vn -0.0000 -0.0000 1.0000
vt 0.333333 0.333333
vt 0.333333 0.444444
vt -0.000000 0.444444
vt 0.000000 0.333333
vt 0.666667 0.111111
vt 0.666667 0.222222
vt 0.333333 0.222222
vt 0.333333 0.111111
vt 0.666667 0.333333
vt 0.333333 0.333333
vt 0.666667 0.000000
vt 0.333333 0.000000
vt 0.888889 0.666667
vt 0.777778 0.666667
vt 0.777778 0.333333
vt 0.888889 0.333333
vt 0.333333 0.666667
vt 0.444444 0.666667
vt 0.444444 0.777778
vt 0.333333 0.777778
vt 0.444445 0.888889
vt 0.333333 0.888889
vt 0.666667 0.555556
vt 0.666667 0.666667
vt 0.333333 0.666667
vt 0.333333 0.555556
vt 0.666667 0.444444
vt 0.333333 0.444444
vt 0.222222 0.222222
vt 0.333333 0.222222
vt 0.333333 0.333333
vt 0.222222 0.333333
vt 0.000000 0.222222
vt 0.111111 0.222222
vt 0.111111 0.333333
vt 0.000000 0.333333
vt 0.000000 0.000000
vt 0.111111 0.000000
vt 0.111111 0.111111
vt 0.000000 0.111111
vt 0.222222 0.000000
vt 0.333333 0.000000
vt 0.333333 0.111111
vt 0.222222 0.111111
vt 0.333333 0.555556
vt -0.000000 0.555556
vt 0.888889 0.333333
vt 0.777778 0.333333
vt 0.777778 0.000000
vt 0.888889 0.000000
vt 0.111111 1.000000
vt -0.000000 1.000000
vt 0.000000 0.666667
vt 0.111111 0.666667
vt 0.222222 1.000000
vt 0.111111 1.000000
vt 0.111111 0.666667
vt 0.222222 0.666667
vt 0.666667 0.333333
vt 0.666667 -0.000000
vt 0.333333 0.666667
vt -0.000000 0.666667
vt 0.666667 0.333333
vt 0.333333 0.333333
vt 0.333333 1.000000
vt 0.222222 1.000000
vt 0.222222 0.666667
vt 0.333333 0.666667
vt 0.666667 0.666667
vt 0.666667 0.333333
s 0
f 3/1/1 5/2/1 25/3/1 24/4/1
f 11/5/2 12/6/2 23/7/2 28/8/2
f 12/6/2 3/9/2 24/10/2 23/7/2
f 4/11/2 11/5/2 28/8/2 22/12/2
f 16/13/1 15/14/1 32/15/1 31/16/1
f 7/17/3 8/18/3 15/19/3 13/20/3
f 13/20/3 15/19/3 16/21/3 14/22/3
f 10/23/4 4/24/4 22/25/4 21/26/4
f 9/27/4 10/23/4 21/26/4 27/28/4
f 31/29/3 21/30/3 22/31/3 28/32/3
f 25/33/3 29/34/3 23/35/3 24/36/3
f 29/34/3 31/29/3 28/32/3 23/35/3
f 18/37/3 26/38/3 30/39/3 17/40/3
f 17/40/3 30/39/3 29/34/3 25/33/3
f 19/41/3 20/42/3 27/43/3 32/44/3
f 32/44/3 27/43/3 21/30/3 31/29/3
f 5/2/1 6/45/1 17/46/1 25/3/1
f 7/47/4 13/48/4 30/49/4 26/50/4
f 1/51/5 7/52/5 26/53/5 18/54/5
f 14/55/5 16/56/5 31/57/5 29/58/5
f 13/48/4 14/59/4 29/60/4 30/49/4
f 6/45/1 1/61/1 18/62/1 17/46/1
f 2/63/4 9/27/4 27/28/4 20/64/4
f 8/65/5 2/66/5 20/67/5 19/68/5
f 15/14/1 8/69/1 19/70/1 32/15/1
