# Blender 4.1.0
# www.blender.org
o Plane.003
v -5.000000 0.000000 5.000000
v 5.000000 0.000000 5.000000
v -5.000000 0.000000 -5.000000
v 5.000000 0.000000 -5.000000
v -5.000000 0.000000 -1.666667
v -5.000000 0.000000 1.666667
v -1.666667 0.000000 5.000000
v 1.666667 0.000000 5.000000
v 5.000000 0.000000 1.666667
v 5.000000 0.000000 -1.666667
v 1.666667 0.000000 -5.000000
v -1.666667 0.000000 -5.000000
v -1.666667 0.000000 1.666667
v -1.666667 0.000000 -1.666667
v 1.666667 0.000000 1.666667
v 1.666667 0.000000 -1.666667
v -5.000000 10.000000 1.666667
v -5.000000 10.000000 5.000000
v 1.666667 10.000000 5.000000
v 5.000000 10.000000 5.000000
v 5.000000 10.000000 -1.666667
v 5.000000 10.000000 -5.000000
v -1.666667 10.000000 -5.000000
v -5.000000 10.000000 -5.000000
v -5.000000 10.000000 -1.666667
v -1.666667 10.000000 5.000000
v 5.000000 10.000000 1.666667
v 1.666667 10.000000 -5.000000
v -1.666667 10.000000 -1.666667
v -1.666667 10.000000 1.666667
v 1.666667 10.000000 -1.666667
v 1.666667 10.000000 1.666667
vn -0.0000 -0.0000 -1.0000
vn 1.0000 -0.0000 -0.0000
vn -0.0000 1.0000 -0.0000
vn -1.0000 -0.0000 -0.0000
vn -0.0000 -0.0000 1.0000
vt 0.433648 0.339811
vt 0.320377 0.339811
vt 0.320377 -0.000000
vt 0.433648 0.000000
vt 1.000000 0.339811
vt 0.886730 0.339811
vt 0.886730 -0.000000
vt 1.000000 -0.000000
vt 0.160189 0.240283
vt 0.240283 0.160189
vt 0.320377 0.240283
vt 0.240283 0.320377
vt 0.546918 0.339811
vt 0.433648 0.339811
vt 0.433648 -0.000000
vt 0.546918 -0.000000
vt 0.000000 0.240283
vt 0.080094 0.160189
vt 0.080094 0.320377
vt 0.000000 0.080094
vt 0.080094 0.000000
vt 0.160189 0.080094
vt 0.113270 0.660189
vt 0.000000 0.660189
vt 0.000000 0.320377
vt 0.113270 0.320377
vt 0.240283 0.000000
vt 0.320377 0.080094
vt 0.546918 0.792893
vt 0.546918 0.679623
vt 0.660189 0.679623
vt 0.660189 0.792893
vt 0.660189 0.679623
vt 0.773459 0.679623
vt 0.773459 0.792893
vt 0.660189 0.792893
vt 0.320377 0.679623
vt 0.433648 0.679623
vt 0.433648 0.792893
vt 0.320377 0.792893
vt 0.433648 0.679623
vt 0.546918 0.679623
vt 0.546918 0.792893
vt 0.433648 0.792893
vt 0.660189 0.339811
vt 0.546918 0.339811
vt 0.546918 -0.000000
vt 0.660189 -0.000000
vt 0.226541 0.660189
vt 0.113270 0.660189
vt 0.113271 0.320377
vt 0.226541 0.320377
vt 0.320377 0.679623
vt 0.320377 0.339811
vt 0.433648 0.339811
vt 0.433648 0.679623
vt 0.433648 0.339811
vt 0.546918 0.339811
vt 0.226541 1.000000
vt 0.113270 1.000000
vt 0.113271 0.660189
vt 0.226541 0.660189
vt 0.660189 0.679623
vt 0.546918 0.679623
vt 0.660189 0.339811
vt 0.773459 0.339811
vt 0.660189 -0.000000
vt 0.773459 0.000000
vt 0.773459 0.679623
vt 0.773459 0.339811
vt 1.000000 0.679623
vt 0.886730 0.679623
vt 0.886730 0.339811
vt 1.000000 0.339811
vt 0.886730 0.339811
vt 0.773459 0.000000
vt 0.886730 0.000000
vt 0.113270 1.000000
vt -0.000000 1.000000
vt 0.000000 0.660189
s 0
f 4/1/1 11/2/1 28/3/1 22/4/1
f 10/5/2 4/6/2 22/7/2 21/8/2
f 14/9/3 16/10/3 11/11/3 12/12/3
f 15/13/4 8/14/4 19/15/4 32/16/4
f 6/17/3 13/18/3 14/9/3 5/19/3
f 7/20/3 8/21/3 15/22/3 13/18/3
f 13/18/3 15/22/3 16/10/3 14/9/3
f 8/23/5 2/24/5 20/25/5 19/26/5
f 15/22/3 9/27/3 10/28/3 16/10/3
f 31/29/3 21/30/3 22/31/3 28/32/3
f 25/33/3 29/34/3 23/35/3 24/36/3
f 18/37/3 26/38/3 30/39/3 17/40/3
f 19/41/3 20/42/3 27/43/3 32/44/3
f 12/45/1 3/46/1 24/47/1 23/48/1
f 13/49/1 6/50/1 17/51/1 30/52/1
f 3/38/4 5/53/4 25/54/4 24/55/4
f 5/30/5 14/56/5 29/57/5 25/58/5
f 14/59/2 12/60/2 23/61/2 29/62/2
f 7/63/2 13/64/2 30/46/2 26/65/2
f 1/66/5 7/45/5 26/67/5 18/68/5
f 9/69/1 15/63/1 32/65/1 27/70/1
f 6/71/4 1/72/4 18/73/4 17/74/4
f 11/75/4 16/66/4 31/76/4 28/77/4
f 2/72/2 9/69/2 27/70/2 20/73/2
f 16/78/5 10/79/5 21/80/5 31/50/5
