# Blender 4.1.0
# www.blender.org
o Plane.004
v -5.000000 0.000000 5.000000
v 5.000000 0.000000 5.000000
v -5.000000 0.000000 -5.000000
v 5.000000 0.000000 -5.000000
v -5.000000 0.000000 -1.666667
v -5.000000 0.000000 1.666667
v -1.666667 0.000000 5.000000
v 1.666667 0.000000 5.000000
v 5.000000 0.000000 1.666667
v 5.000000 0.000000 -1.666667
v 1.666667 0.000000 -5.000000
v -1.666667 0.000000 -5.000000
v -1.666667 0.000000 1.666667
v -1.666667 0.000000 -1.666667
v 1.666667 0.000000 1.666667
v 1.666667 0.000000 -1.666667
v -5.000000 10.000000 1.666667
v -5.000000 10.000000 5.000000
v 1.666667 10.000000 5.000000
v 5.000000 10.000000 5.000000
v 5.000000 10.000000 -1.666667
v 5.000000 10.000000 -5.000000
v -1.666667 10.000000 -5.000000
v -5.000000 10.000000 -5.000000
v -5.000000 10.000000 -1.666667
v -1.666667 10.000000 5.000000
v 5.000000 10.000000 1.666667
v 1.666667 10.000000 -5.000000
v -1.666667 10.000000 -1.666667
v -1.666667 10.000000 1.666667
v 1.666667 10.000000 -1.666667
v 1.666667 10.000000 1.666667
vn -0.0000 -0.0000 1.0000
vn -1.0000 -0.0000 -0.0000
vn -0.0000 -0.0000 -1.0000
vn -0.0000 1.0000 -0.0000
vn 1.0000 -0.0000 -0.0000
vt 0.333333 0.000000
vt 0.333333 0.111111
vt -0.000000 0.111111
vt 0.000000 0.000000
vt 0.333333 0.666667
vt 0.222222 0.666667
vt 0.222222 0.333333
vt 0.333333 0.333333
vt 0.666667 0.111111
vt 0.666667 0.222222
vt 0.333333 0.222222
vt 0.333333 0.111111
vt 0.444445 0.666667
vt 0.333333 0.666667
vt 0.333333 0.333333
vt 0.444445 0.333333
vt 0.111111 0.666667
vt 0.111111 0.555556
vt 0.222222 0.555556
vt 0.222222 0.666667
vt -0.000000 0.555556
vt -0.000000 0.444445
vt 0.111111 0.444445
vt 0.222222 0.444445
vt 0.666667 0.333333
vt 0.333333 0.333333
vt 0.111111 0.333333
vt 0.222222 0.333333
vt 0.444445 0.444445
vt 0.444445 0.333333
vt 0.555556 0.333333
vt 0.555556 0.444445
vt 0.444445 0.666667
vt 0.444445 0.555556
vt 0.555556 0.555556
vt 0.555556 0.666667
vt 0.777778 0.000000
vt 0.888889 0.000000
vt 0.888889 0.111111
vt 0.777778 0.111111
vt 0.777778 0.111111
vt 0.888889 0.111111
vt 0.888889 0.222222
vt 0.777778 0.222222
vt 0.111111 1.000000
vt -0.000000 1.000000
vt 0.000000 0.666667
vt 0.111111 0.666667
vt 0.222222 1.000000
vt 0.111111 1.000000
vt 0.111111 0.666667
vt 0.222222 0.666667
vt 0.333333 0.222222
vt -0.000000 0.222222
vt 0.333333 1.000000
vt 0.222222 1.000000
vt 0.222222 0.666667
vt 0.333333 0.666667
vt 0.777778 0.666667
vt 0.666667 0.666667
vt 0.666667 0.333333
vt 0.777778 0.333333
vt 0.444445 1.000000
vt 0.333333 1.000000
vt 0.333333 0.666667
vt 0.444445 0.666667
vt -0.000000 0.333333
vt 0.555556 1.000000
vt 0.444445 1.000000
vt 0.444445 0.666667
vt 0.555556 0.666667
vt 0.777778 0.333333
vt 0.666667 0.333333
vt 0.666667 -0.000000
vt 0.777778 0.000000
vt 0.777778 1.000000
vt 0.666667 1.000000
vt 0.666667 0.000000
vt 0.333333 0.000000
s 0
f 5/1/1 14/2/1 29/3/1 25/4/1
f 3/5/2 5/6/2 25/7/2 24/8/2
f 11/9/3 12/10/3 23/11/3 28/12/3
f 13/13/3 6/14/3 17/15/3 30/16/3
f 6/17/4 13/18/4 14/19/4 5/20/4
f 7/21/4 8/22/4 15/23/4 13/18/4
f 13/18/4 15/23/4 16/24/4 14/19/4
f 12/10/3 3/25/3 24/26/3 23/11/3
f 15/23/4 9/27/4 10/28/4 16/24/4
f 31/29/4 21/30/4 22/31/4 28/32/4
f 25/33/4 29/34/4 23/35/4 24/36/4
f 29/34/4 31/29/4 28/32/4 23/35/4
f 18/37/4 26/38/4 30/39/4 17/40/4
f 19/41/4 20/42/4 27/43/4 32/44/4
f 7/45/5 13/46/5 30/47/5 26/48/5
f 1/49/1 7/50/1 26/51/1 18/52/1
f 14/2/1 16/53/1 31/54/1 29/3/1
f 9/55/3 15/56/3 32/57/3 27/58/3
f 6/59/2 1/60/2 18/61/2 17/62/2
f 2/63/5 9/64/5 27/65/5 20/66/5
f 16/53/1 10/26/1 21/67/1 31/54/1
f 8/68/1 2/69/1 20/70/1 19/71/1
f 15/72/2 8/73/2 19/74/2 32/75/2
f 10/76/5 4/77/5 22/60/5 21/59/5
f 4/78/3 11/9/3 28/12/3 22/79/3
