# Blender 4.4.3
# www.blender.org
o Cube.017
v -1.000000 -1.000000 1.000000
v -1.000000 1.000000 1.000000
v -1.000000 -1.000000 -1.000000
v -1.000000 1.000000 -1.000000
v 1.000000 -1.000000 1.000000
v 1.000000 1.000000 1.000000
v 1.000000 -1.000000 -1.000000
v 1.000000 1.000000 -1.000000
v -1.000000 -1.000000 -0.500000
v -1.000000 -1.000000 0.000000
v -1.000000 -1.000000 0.500000
v -1.000000 -0.500000 1.000000
v -1.000000 0.000000 1.000000
v -1.000000 0.500000 1.000000
v -1.000000 1.000000 0.500000
v -1.000000 1.000000 0.000000
v -1.000000 1.000000 -0.500000
v -1.000000 0.500000 -1.000000
v -1.000000 0.000000 -1.000000
v -1.000000 -0.500000 -1.000000
v 0.500000 -1.000000 -1.000000
v 0.000000 -1.000000 -1.000000
v -0.500000 -1.000000 -1.000000
v -0.500000 1.000000 -1.000000
v 0.000000 1.000000 -1.000000
v 0.500000 1.000000 -1.000000
v 1.000000 0.500000 -1.000000
v 1.000000 0.000000 -1.000000
v 1.000000 -0.500000 -1.000000
v 1.000000 -1.000000 0.500000
v 1.000000 -1.000000 0.000000
v 1.000000 -1.000000 -0.500000
v 1.000000 1.000000 -0.500000
v 1.000000 1.000000 0.000000
v 1.000000 1.000000 0.500000
v 1.000000 0.500000 1.000000
v 1.000000 0.000000 1.000000
v 1.000000 -0.500000 1.000000
v -0.500000 -1.000000 1.000000
v 0.000000 -1.000000 1.000000
v 0.500000 -1.000000 1.000000
v 0.500000 1.000000 1.000000
v 0.000000 1.000000 1.000000
v -0.500000 1.000000 1.000000
v 0.500000 1.000000 -0.500000
v 0.500000 1.000000 0.000000
v 0.500000 1.000000 0.500000
v 0.000000 1.000000 -0.500000
v 0.000000 1.000000 0.000000
v 0.000000 1.000000 0.500000
v -0.500000 1.000000 -0.500000
v -0.500000 1.000000 0.000000
v -0.500000 1.000000 0.500000
v -0.500000 -1.000000 -0.500000
v -0.500000 -1.000000 0.000000
v -0.500000 -1.000000 0.500000
v 0.000000 -1.000000 -0.500000
v 0.000000 -1.000000 0.000000
v 0.000000 -1.000000 0.500000
v 0.500000 -1.000000 -0.500000
v 0.500000 -1.000000 0.000000
v 0.500000 -1.000000 0.500000
v 0.500000 -0.500000 1.000000
v 0.000000 -0.500000 1.000000
v -0.500000 -0.500000 1.000000
v 0.500000 0.000000 1.000000
v 0.000000 0.000000 1.000000
v -0.500000 0.000000 1.000000
v 0.500000 0.500000 1.000000
v 0.000000 0.500000 1.000000
v -0.500000 0.500000 1.000000
v 1.000000 -0.500000 -0.500000
v 1.000000 -0.500000 0.000000
v 1.000000 -0.500000 0.500000
v 1.000000 0.000000 -0.500000
v 1.000000 0.000000 0.000000
v 1.000000 0.000000 0.500000
v 1.000000 0.500000 -0.500000
v 1.000000 0.500000 0.000000
v 1.000000 0.500000 0.500000
v -0.500000 -0.500000 -1.000000
v 0.000000 -0.500000 -1.000000
v 0.500000 -0.500000 -1.000000
v -0.500000 0.000000 -1.000000
v 0.000000 0.000000 -1.000000
v 0.500000 0.000000 -1.000000
v -0.500000 0.500000 -1.000000
v 0.000000 0.500000 -1.000000
v 0.500000 0.500000 -1.000000
v -1.000000 -0.500000 0.500000
v -1.000000 -0.500000 0.000000
v -1.000000 -0.500000 -0.500000
v -1.000000 0.000000 0.500000
v -1.000000 0.000000 0.000000
v -1.000000 0.000000 -0.500000
v -1.000000 0.500000 0.500000
v -1.000000 0.500000 0.000000
v -1.000000 0.500000 -0.500000
vn -1.0000 -0.0000 -0.0000
vn -0.0000 -0.0000 -1.0000
vn 1.0000 -0.0000 -0.0000
vn -0.0000 -0.0000 1.0000
vn -0.0000 -1.0000 -0.0000
vn -0.0000 1.0000 -0.0000
vt 0.750000 0.750000
vt 1.000000 0.750000
vt 1.000000 1.000000
vt 0.750000 1.000000
vt 0.000000 0.750000
vt 0.250000 0.750000
vt 0.250000 1.000000
vt 0.000000 1.000000
vt 0.500000 0.750000
vt 0.500000 1.000000
vt 0.000000 0.000000
vt 0.250000 0.000000
vt 0.250000 0.250000
vt 0.000000 0.250000
vt 0.250000 0.500000
vt 0.000000 0.500000
vt 0.500000 0.000000
vt 0.500000 0.250000
vt 0.500000 0.500000
vt 0.750000 0.000000
vt 0.750000 0.250000
vt 0.750000 0.500000
vt 1.000000 0.000000
vt 1.000000 0.250000
vt 1.000000 0.500000
vt 0.000000 0.250000
vt 0.000000 0.500000
vt 1.000000 0.250000
vt 1.000000 0.500000
vt 0.250000 0.750000
vt 0.250000 1.000000
vt 0.500000 0.750000
vt 0.500000 1.000000
vt 0.250000 0.000000
vt 0.250000 0.250000
vt 0.250000 0.500000
vt 0.500000 0.000000
vt 0.500000 0.250000
vt 0.500000 0.500000
s 0
f 98/1/1 17/2/1 4/3/1 18/4/1
f 89/1/2 26/2/2 8/3/2 27/4/2
f 80/1/3 35/2/3 6/3/3 36/4/3
f 71/1/4 44/2/4 2/3/4 14/4/4
f 62/1/5 30/2/5 5/3/5 41/4/5
f 53/1/6 15/2/6 2/3/6 44/4/6
f 35/5/6 47/6/6 42/7/6 6/8/6
f 47/6/6 50/9/6 43/10/6 42/7/6
f 50/9/6 53/1/6 44/4/6 43/10/6
f 8/11/6 26/12/6 45/13/6 33/14/6
f 33/14/6 45/13/6 46/15/6 34/16/6
f 34/16/6 46/15/6 47/6/6 35/5/6
f 26/12/6 25/17/6 48/18/6 45/13/6
f 45/13/6 48/18/6 49/19/6 46/15/6
f 46/15/6 49/19/6 50/9/6 47/6/6
f 25/17/6 24/20/6 51/21/6 48/18/6
f 48/18/6 51/21/6 52/22/6 49/19/6
f 49/19/6 52/22/6 53/1/6 50/9/6
f 24/20/6 4/23/6 17/24/6 51/21/6
f 51/21/6 17/24/6 16/25/6 52/22/6
f 52/22/6 16/25/6 15/2/6 53/1/6
f 11/5/5 56/6/5 39/7/5 1/8/5
f 56/6/5 59/9/5 40/10/5 39/7/5
f 59/9/5 62/1/5 41/4/5 40/10/5
f 3/11/5 23/12/5 54/13/5 9/14/5
f 9/14/5 54/13/5 55/15/5 10/16/5
f 10/16/5 55/15/5 56/6/5 11/5/5
f 23/12/5 22/17/5 57/18/5 54/13/5
f 54/13/5 57/18/5 58/19/5 55/15/5
f 55/15/5 58/19/5 59/9/5 56/6/5
f 22/17/5 21/20/5 60/21/5 57/18/5
f 57/18/5 60/21/5 61/22/5 58/19/5
f 58/19/5 61/22/5 62/1/5 59/9/5
f 21/20/5 7/23/5 32/24/5 60/21/5
f 60/21/5 32/24/5 31/25/5 61/22/5
f 61/22/5 31/25/5 30/2/5 62/1/5
f 39/5/4 65/6/4 12/7/4 1/8/4
f 65/6/4 68/9/4 13/10/4 12/7/4
f 68/9/4 71/1/4 14/4/4 13/10/4
f 5/11/4 38/12/4 63/13/4 41/26/4
f 41/26/4 63/13/4 64/15/4 40/27/4
f 40/27/4 64/15/4 65/6/4 39/5/4
f 38/12/4 37/17/4 66/18/4 63/13/4
f 63/13/4 66/18/4 67/19/4 64/15/4
f 64/15/4 67/19/4 68/9/4 65/6/4
f 37/17/4 36/20/4 69/21/4 66/18/4
f 66/18/4 69/21/4 70/22/4 67/19/4
f 67/19/4 70/22/4 71/1/4 68/9/4
f 36/20/4 6/23/4 42/28/4 69/21/4
f 69/21/4 42/28/4 43/29/4 70/22/4
f 70/22/4 43/29/4 44/2/4 71/1/4
f 30/5/3 74/30/3 38/31/3 5/8/3
f 74/30/3 77/32/3 37/33/3 38/31/3
f 77/32/3 80/1/3 36/4/3 37/33/3
f 7/11/3 29/12/3 72/13/3 32/26/3
f 32/26/3 72/13/3 73/15/3 31/27/3
f 31/27/3 73/15/3 74/30/3 30/5/3
f 29/12/3 28/17/3 75/18/3 72/13/3
f 72/13/3 75/18/3 76/19/3 73/15/3
f 73/15/3 76/19/3 77/32/3 74/30/3
f 28/17/3 27/20/3 78/21/3 75/18/3
f 75/18/3 78/21/3 79/22/3 76/19/3
f 76/19/3 79/22/3 80/1/3 77/32/3
f 27/20/3 8/23/3 33/28/3 78/21/3
f 78/21/3 33/28/3 34/29/3 79/22/3
f 79/22/3 34/29/3 35/2/3 80/1/3
f 21/5/2 83/30/2 29/31/2 7/8/2
f 83/30/2 86/32/2 28/33/2 29/31/2
f 86/32/2 89/1/2 27/4/2 28/33/2
f 3/11/2 20/12/2 81/13/2 23/26/2
f 23/26/2 81/13/2 82/15/2 22/27/2
f 22/27/2 82/15/2 83/30/2 21/5/2
f 20/12/2 19/17/2 84/18/2 81/13/2
f 81/13/2 84/18/2 85/19/2 82/15/2
f 82/15/2 85/19/2 86/32/2 83/30/2
f 19/17/2 18/20/2 87/21/2 84/18/2
f 84/18/2 87/21/2 88/22/2 85/19/2
f 85/19/2 88/22/2 89/1/2 86/32/2
f 18/20/2 4/23/2 24/28/2 87/21/2
f 87/21/2 24/28/2 25/29/2 88/22/2
f 88/22/2 25/29/2 26/2/2 89/1/2
f 9/5/1 92/6/1 20/31/1 3/8/1
f 92/6/1 95/9/1 19/33/1 20/31/1
f 95/9/1 98/1/1 18/4/1 19/33/1
f 1/11/1 12/34/1 90/35/1 11/26/1
f 11/26/1 90/35/1 91/36/1 10/27/1
f 10/27/1 91/36/1 92/6/1 9/5/1
f 12/34/1 13/37/1 93/38/1 90/35/1
f 90/35/1 93/38/1 94/39/1 91/36/1
f 91/36/1 94/39/1 95/9/1 92/6/1
f 13/37/1 14/20/1 96/21/1 93/38/1
f 93/38/1 96/21/1 97/22/1 94/39/1
f 94/39/1 97/22/1 98/1/1 95/9/1
f 14/20/1 2/23/1 15/28/1 96/21/1
f 96/21/1 15/28/1 16/29/1 97/22/1
f 97/22/1 16/29/1 17/2/1 98/1/1
