# Blender 5.1.2
# www.blender.org
o Cube
v -0.050000 -0.050000 -0.050000 0.0000 0.0000 0.0000
v -0.050000 0.050000 -0.050000 0.0000 0.0000 0.0000
v -0.050000 -0.050000 0.050000 0.0000 0.0000 0.0000
v -0.050000 0.050000 0.050000 0.0000 0.0000 0.0000
v 0.050000 -0.050000 -0.050000 0.0000 0.0000 0.0000
v 0.050000 0.050000 -0.050000 0.0000 0.0000 0.0000
v 0.050000 -0.050000 0.050000 0.0000 0.0000 0.0000
v 0.050000 0.050000 0.050000 0.0000 0.0000 0.0000
v -0.050000 -0.050000 1.000000 0.0000 0.0000 1.0000
v -0.050000 0.050000 1.000000 0.0000 0.0000 1.0000
v 0.050000 0.050000 1.000000 0.0000 0.0000 1.0000
v 0.050000 -0.050000 1.000000 0.0000 0.0000 1.0000
v 1.000000 -0.050000 0.050000 1.0000 0.0000 0.0000
v 1.000000 0.050000 0.050000 1.0000 0.0000 0.0000
v 1.000000 0.050000 -0.050000 1.0000 0.0000 0.0000
v 1.000000 -0.050000 -0.050000 1.0000 0.0000 0.0000
v 0.050000 1.000000 0.050000 0.0000 1.0000 0.0000
v -0.050000 1.000000 0.050000 0.0000 1.0000 0.0000
v -0.050000 1.000000 -0.050000 0.0000 1.0000 0.0000
v 0.050000 1.000000 -0.050000 0.0000 1.0000 0.0000
vn -1.0000 -0.0000 -0.0000
vn -0.0000 -0.0000 -1.0000
vn -0.0000 -1.0000 -0.0000
vn -0.0000 -0.0000 1.0000
vn -0.0000 1.0000 -0.0000
vn 1.0000 -0.0000 -0.0000
vt 0.375000 0.000000
vt 0.625000 0.000000
vt 0.625000 0.250000
vt 0.375000 0.250000
vt 0.375000 0.750000
vt 0.625000 0.750000
vt 0.625000 1.000000
vt 0.375000 1.000000
vt 0.125000 0.500000
vt 0.375000 0.500000
vt 0.125000 0.750000
vt 0.625000 0.500000
vt 0.875000 0.500000
vt 0.875000 0.750000
s 0
f 1/1/1 3/4/1 4/3/1 2/2/1
f 5/5/2 1/8/2 2/7/2 6/6/2
f 3/9/3 1/11/3 5/5/3 7/10/3
f 9/4/4 12/10/4 11/12/4 10/3/4
f 4/3/1 3/4/1 9/4/1 10/3/1
f 8/12/5 4/3/5 10/3/5 11/12/5
f 7/10/6 8/12/6 11/12/6 12/10/6
f 3/4/3 7/10/3 12/10/3 9/4/3
f 13/10/6 16/5/6 15/6/6 14/12/6
f 8/12/4 7/10/4 13/10/4 14/12/4
f 6/6/5 8/12/5 14/12/5 15/6/5
f 5/5/2 6/6/2 15/6/2 16/5/2
f 7/10/3 5/5/3 16/5/3 13/10/3
f 17/12/5 20/6/5 19/14/5 18/13/5
f 4/13/4 8/12/4 17/12/4 18/13/4
f 2/14/1 4/13/1 18/13/1 19/14/1
f 6/6/2 2/14/2 19/14/2 20/6/2
f 8/12/6 6/6/6 20/6/6 17/12/6
