# Blender 5.2.0 LTS
# www.blender.org
o Cube
v -0.050000 -0.050000 -0.050000 0.0000 0.0000 0.0000
v -0.050000 0.050000 -0.050000 0.0000 0.0000 0.0000
v -0.050000 -0.050000 0.050000 0.0000 0.0000 0.0000
v -0.050000 0.050000 0.050000 0.0000 0.0000 0.0000
v 0.050000 -0.050000 -0.050000 0.0000 0.0000 0.0000
v 0.050000 0.050000 -0.050000 0.0000 0.0000 0.0000
v 0.050000 -0.050000 0.050000 0.0000 0.0000 0.0000
v 0.050000 0.050000 0.050000 0.0000 0.0000 0.0000
v -0.050000 -0.050000 1.000000 0.0000 0.0000 1.0000
v -0.050000 0.050000 1.000000 0.0000 0.0000 1.0000
v 0.050000 0.050000 1.000000 0.0000 0.0000 1.0000
v 0.050000 -0.050000 1.000000 0.0000 0.0000 1.0000
v 1.000000 -0.050000 0.050000 1.0000 0.0000 0.0000
v 1.000000 0.050000 0.050000 1.0000 0.0000 0.0000
v 1.000000 0.050000 -0.050000 1.0000 0.0000 0.0000
v 1.000000 -0.050000 -0.050000 1.0000 0.0000 0.0000
v 0.050000 1.000000 0.050000 0.0000 1.0000 0.0000
v -0.050000 1.000000 0.050000 0.0000 1.0000 0.0000
v -0.050000 1.000000 -0.050000 0.0000 1.0000 0.0000
v 0.050000 1.000000 -0.050000 0.0000 1.0000 0.0000
vn -1.0000 -0.0000 -0.0000
vn -0.0000 -0.0000 -1.0000
vn -0.0000 -1.0000 -0.0000
vn -0.0000 -0.0000 1.0000
vn -0.0000 1.0000 -0.0000
vn 1.0000 -0.0000 -0.0000
vt 0.500000 0.500000
vt 0.452381 0.500000
vt 0.452381 0.452381
vt 0.500000 0.452381
vt 0.500000 0.547619
vt 0.452381 0.547619
vt 0.547619 0.000000
vt 0.547619 0.047619
vt 0.500000 0.047619
vt 0.500000 -0.000000
vt 0.833333 0.547619
vt 0.785714 0.547619
vt 0.785714 0.500000
vt 0.833333 0.500000
vt 0.452381 -0.000000
vt 0.500000 -0.000000
vt 0.690476 0.500000
vt 0.690476 0.952381
vt 0.642857 0.952381
vt 0.642857 0.500000
vt 0.547619 0.500000
vt 0.547619 0.952381
vt 0.500000 0.952381
vt 0.500000 0.500000
vt 1.000000 0.000000
vt 1.000000 0.047619
vt 0.833333 0.595238
vt 0.785714 0.595238
vt 0.547619 0.952381
vt 0.547619 0.500000
vt 0.595238 0.500000
vt 0.595238 0.952381
vt 0.595238 0.952381
vt 0.595238 0.500000
vt 0.642857 0.500000
vt 0.642857 0.952381
vt 0.500000 1.000000
vt 0.452381 1.000000
vt 0.833333 0.595238
vt 0.833333 0.642857
vt 0.785714 0.642857
vt 0.785714 0.595238
vt 0.738095 0.500000
vt 0.738095 0.952381
vt 0.000000 0.500000
vt 0.000000 0.452381
vt 0.000000 0.547619
vt 0.785714 0.500000
vt 0.785714 0.952381
s 0
f 1/1/1 3/4/1 4/3/1 2/2/1
f 5/5/2 1/1/2 2/2/2 6/6/2
f 3/7/3 1/10/3 5/9/3 7/8/3
f 9/11/4 12/14/4 11/13/4 10/12/4
f 4/3/1 3/4/1 9/16/1 10/15/1
f 8/17/5 4/20/5 10/19/5 11/18/5
f 7/21/6 8/24/6 11/23/6 12/22/6
f 3/7/3 7/8/3 12/26/3 9/25/3
f 13/27/6 16/11/6 15/12/6 14/28/6
f 8/29/4 7/32/4 13/31/4 14/30/4
f 6/33/5 8/36/5 14/35/5 15/34/5
f 5/5/2 6/6/2 15/38/2 16/37/2
f 7/8/3 5/9/3 16/24/3 13/21/3
f 17/39/5 20/42/5 19/41/5 18/40/5
f 4/18/4 8/44/4 17/43/4 18/17/4
f 2/2/1 4/3/1 18/46/1 19/45/1
f 6/6/2 2/2/2 19/45/2 20/47/2
f 8/44/6 6/49/6 20/48/6 17/43/6
