# Blender 5.2.0 LTS
# www.blender.org
o Cone
v -0.122600 -0.930698 -0.015264 0.2815 0.2815 0.2815
v -0.245464 -0.523943 -0.038273 0.2890 0.2890 0.2890
v -0.070344 -0.930698 -0.095403 0.3156 0.3156 0.3156
v -0.140952 -0.523943 -0.198551 0.3310 0.3310 0.3310
v 0.023273 -0.930698 -0.115119 0.3890 0.3890 0.3890
v 0.046282 -0.523943 -0.237983 0.4854 0.4854 0.4854
v 0.103412 -0.930698 -0.062863 0.4524 0.4524 0.4524
v 0.206560 -0.523943 -0.133471 0.4773 0.4773 0.4773
v 0.123128 -0.930698 0.030754 0.4837 0.4837 0.4837
v 0.245992 -0.523943 0.053763 0.5056 0.5056 0.5056
v 0.070872 -0.930698 0.110893 0.4129 0.4129 0.4129
v 0.141481 -0.523943 0.214041 0.4332 0.4332 0.4332
v -0.022745 -0.930698 0.130609 0.3193 0.3193 0.3193
v -0.045754 -0.523943 0.253473 0.3340 0.3340 0.3340
v -0.102884 -0.930698 0.078353 0.2839 0.2839 0.2839
v -0.206032 -0.523943 0.148962 0.2955 0.2955 0.2955
v -0.134886 -0.880698 -0.017565 0.2575 0.2575 0.2575
v -0.233178 -0.573943 -0.035972 0.2641 0.2641 0.2641
v -0.133892 -0.573943 -0.188236 0.2816 0.2816 0.2816
v -0.077405 -0.880698 -0.105718 0.3057 0.3057 0.3057
v 0.043981 -0.573943 -0.225697 0.4684 0.4684 0.4684
v 0.025574 -0.880698 -0.127405 0.4165 0.4165 0.4165
v 0.196245 -0.573943 -0.126411 0.4775 0.4775 0.4775
v 0.113727 -0.880698 -0.069924 0.4926 0.4926 0.4926
v 0.233706 -0.573943 0.051462 0.5120 0.5120 0.5120
v 0.135415 -0.880698 0.033055 0.5213 0.5213 0.5213
v 0.134420 -0.573943 0.203726 0.4279 0.4279 0.4279
v 0.077933 -0.880698 0.121208 0.4473 0.4473 0.4473
v -0.043453 -0.573943 0.241187 0.3089 0.3089 0.3089
v -0.025046 -0.880698 0.142896 0.3389 0.3389 0.3389
v -0.195717 -0.573943 0.141901 0.2689 0.2689 0.2689
v -0.113198 -0.880698 0.085414 0.2465 0.2465 0.2465
vn -0.8162 -0.2250 -0.5322
vn 0.5322 -0.2250 -0.8162
vn 0.9534 -0.2250 -0.2008
vn 0.8162 -0.2250 0.5322
vn 0.2008 -0.2250 0.9534
vn -0.0000 1.0000 -0.0000
vn -0.5322 -0.2250 0.8162
vn -0.9534 -0.2250 0.2008
vn -0.0000 -1.0000 -0.0000
vn -0.2008 -0.2250 -0.9534
vt 1.000000 0.950000
vt 1.000000 1.000000
vt 0.875000 1.000000
vt 0.875000 0.950000
vt 0.750000 0.950000
vt 0.750000 1.000000
vt 0.625000 1.000000
vt 0.625000 0.950000
vt 0.500000 1.000000
vt 0.500000 0.950000
vt 0.375000 1.000000
vt 0.375000 0.950000
vt 0.250000 1.000000
vt 0.250000 0.950000
vt 0.419706 0.419706
vt 0.250000 0.490000
vt 0.080294 0.419706
vt 0.010000 0.250000
vt 0.080294 0.080294
vt 0.250000 0.010000
vt 0.419706 0.080294
vt 0.490000 0.250000
vt 0.125000 1.000000
vt 0.125000 0.950000
vt 0.000000 1.000000
vt 0.000000 0.950000
vt 0.750000 0.490000
vt 0.919706 0.419706
vt 0.990000 0.250000
vt 0.919706 0.080294
vt 0.750000 0.010000
vt 0.580294 0.080294
vt 0.510000 0.250000
vt 0.580294 0.419706
vt 0.125000 0.500000
vt 0.125000 0.550000
vt 0.000000 0.550000
vt 0.000000 0.500000
vt 0.250000 0.500000
vt 0.250000 0.550000
vt 0.375000 0.500000
vt 0.375000 0.550000
vt 0.500000 0.500000
vt 0.500000 0.550000
vt 0.625000 0.500000
vt 0.625000 0.550000
vt 0.750000 0.500000
vt 0.750000 0.550000
vt 0.875000 0.500000
vt 0.875000 0.550000
vt 1.000000 0.550000
vt 1.000000 0.500000
s 0
f 18/1/1 2/2/1 4/3/1 19/4/1
f 21/5/2 6/6/2 8/7/2 23/8/2
f 23/8/3 8/7/3 10/9/3 25/10/3
f 25/10/4 10/9/4 12/11/4 27/12/4
f 27/12/5 12/11/5 14/13/5 29/14/5
f 4/15/6 2/16/6 16/17/6 14/18/6 12/19/6 10/20/6 8/21/6 6/22/6
f 29/14/7 14/13/7 16/23/7 31/24/7
f 31/24/8 16/23/8 2/25/8 18/26/8
f 1/27/9 3/28/9 5/29/9 7/30/9 9/31/9 11/32/9 13/33/9 15/34/9
f 15/35/8 32/36/8 17/37/8 1/38/8
f 13/39/7 30/40/7 32/36/7 15/35/7
f 11/41/5 28/42/5 30/40/5 13/39/5
f 9/43/4 26/44/4 28/42/4 11/41/4
f 7/45/3 24/46/3 26/44/3 9/43/3
f 5/47/2 22/48/2 24/46/2 7/45/2
f 3/49/10 20/50/10 22/48/10 5/47/10
f 32/36/6 30/40/6 28/42/6 26/44/6 24/46/6 22/48/6 20/50/6 17/51/6
f 31/24/9 18/1/9 19/4/9 21/5/9 23/8/9 25/10/9 27/12/9 29/14/9
f 1/52/1 17/51/1 20/50/1 3/49/1
f 6/6/10 21/5/10 19/4/10 4/3/10
