# Blender 5.2.0 LTS
# www.blender.org
o pier.001
v -0.133384 -4.424212 0.092260 0.2147 0.2147 0.2147
v -0.133384 0.958273 0.092260 0.3349 0.3349 0.3349
v -0.197404 -4.424212 -0.200830 0.2146 0.2146 0.2146
v -0.197404 0.958273 -0.200830 0.3108 0.3108 0.3108
v 0.159705 -4.424212 0.028240 0.2143 0.2143 0.2143
v 0.159705 0.958273 0.028240 0.4305 0.4305 0.4305
v 0.095685 -4.424212 -0.264849 0.2137 0.2137 0.2137
v 0.095685 0.958273 -0.264849 0.4126 0.4126 0.4126
v -0.133384 1.253834 0.092260 0.3349 0.3349 0.3349
v -0.197404 1.253834 -0.200830 0.3108 0.3108 0.3108
v 0.095685 1.253834 -0.264849 0.4126 0.4126 0.4126
v 0.159705 1.253834 0.028240 0.4305 0.4305 0.4305
v -0.283304 0.958273 -0.594090 0.3108 0.3108 0.3108
v 0.009786 0.958273 -0.658109 0.4126 0.4126 0.4126
v 0.339852 0.958273 0.852975 0.4305 0.4305 0.4305
v 0.046763 0.958273 0.916994 0.3349 0.3349 0.3349
v -0.283304 1.253834 -0.594090 0.3108 0.3108 0.3108
v 0.009786 1.253834 -0.658109 0.4126 0.4126 0.4126
v 0.339852 1.253834 0.852975 0.4305 0.4305 0.4305
v 0.046763 1.253834 0.916994 0.3349 0.3349 0.3349
vn -0.9770 -0.0000 0.2134
vn -0.2134 -0.0000 -0.9770
vn 0.9770 -0.0000 -0.2134
vn 0.2134 -0.0000 0.9770
vn -0.0000 -1.0000 -0.0000
vn -0.0000 1.0000 -0.0000
vt 0.579649 0.763728
vt 0.043578 0.763728
vt 0.043578 0.734264
vt 0.579649 0.734264
vt 0.550213 0.615054
vt 0.014142 0.615054
vt 0.014142 0.585671
vt 0.550213 0.585671
vt 0.579649 0.959018
vt 0.043578 0.959018
vt 0.043578 0.929553
vt 0.579649 0.929553
vt 0.014142 0.556288
vt 0.550213 0.556288
vt 0.908314 0.908918
vt 0.908314 0.938796
vt 0.878435 0.938796
vt 0.878435 0.908918
vt 0.065302 0.906332
vt 0.094767 0.906332
vt 0.094767 0.935769
vt 0.065302 0.935769
vt 0.725669 0.142314
vt 0.725669 0.172192
vt 0.695791 0.172192
vt 0.695791 0.142314
vt 0.849836 0.142314
vt 0.849836 0.172192
vt 0.765759 0.172192
vt 0.765759 0.142314
vt 0.260591 0.906332
vt 0.260591 0.935769
vt 0.177679 0.935769
vt 0.177679 0.906332
vt 0.290056 0.906332
vt 0.290056 0.935769
vt 0.907872 0.879534
vt 0.907872 0.908918
vt 0.878435 0.879534
vt 0.907872 0.849656
vt 0.907872 0.879039
vt 0.878435 0.879039
vt 0.878435 0.849656
vt 0.177679 0.906332
vt 0.838778 0.694728
vt 0.838778 0.664850
vt 0.878869 0.664850
vt 0.878869 0.694728
vt 0.329592 0.906332
vt 0.329592 0.935769
vt 0.025766 0.935769
vt 0.025766 0.906332
vt 0.611714 0.172192
vt 0.611714 0.142314
vt 0.765759 0.142314
vt 0.765759 0.172193
s 0
f 1/1/1 2/2/1 4/3/1 3/4/1
f 3/5/2 4/6/2 8/7/2 7/8/2
f 7/9/3 8/10/3 6/11/3 5/12/3
f 5/8/4 6/7/4 2/13/4 1/14/4
f 3/15/5 7/16/5 5/17/5 1/18/5
f 4/19/1 2/20/1 9/21/1 10/22/1
f 11/23/6 10/24/6 9/25/6 12/26/6
f 2/27/5 6/28/5 15/29/5 16/30/5
f 6/31/3 12/32/3 19/33/3 15/34/3
f 6/31/3 8/35/3 11/36/3 12/32/3
f 16/37/4 15/38/4 19/18/4 20/39/4
f 14/40/2 13/41/2 17/42/2 18/43/2
f 9/21/1 2/20/1 16/44/1 20/33/1
f 8/45/5 4/46/5 13/47/5 14/48/5
f 11/36/3 8/35/3 14/49/3 18/50/3
f 4/19/1 10/22/1 17/51/1 13/52/1
f 12/26/6 9/25/6 20/53/6 19/54/6
f 10/24/6 11/23/6 18/55/6 17/56/6
