# Blender 5.2.0 LTS
# www.blender.org
o Plane.001
v -0.009003 -0.106441 0.038650
v -0.009003 -0.830321 0.038650
v 0.013193 -0.106441 -0.026281
v 0.013193 -0.830321 -0.026281
v -0.030371 -0.106441 -0.004914
v -0.030371 -0.830321 -0.004914
v 0.034561 -0.106441 0.017283
v 0.034561 -0.830321 0.017283
vn 0.9462 -0.0000 0.3235
vn -0.3235 -0.0000 0.9462
vt 0.408447 0.907660
vt 0.408447 0.000000
vt 0.499213 0.000000
vt 0.499213 0.907660
vt 1.000000 -0.000000
vt 1.000000 0.907660
vt 0.907660 0.907660
vt 0.907660 -0.000000
s 0
f 1/1/1 2/2/1 4/3/1 3/4/1
f 5/5/2 6/6/2 8/7/2 7/8/2
