# Blender 5.2.0 LTS
# www.blender.org
o pier
v -5.182814 -2.758940 0.918002 0.2137 0.2137 0.2137
v -5.182814 0.276234 0.918002 0.3133 0.3133 0.3133
v -5.222057 -2.758940 0.620579 0.2156 0.2156 0.2156
v -5.222057 0.276234 0.620579 0.3134 0.3134 0.3134
v -4.885391 -2.758940 0.878758 0.2140 0.2140 0.2140
v -4.885391 0.276234 0.878758 0.4135 0.4135 0.4135
v -4.924635 -2.758940 0.581336 0.2135 0.2135 0.2135
v -4.924635 0.276234 0.581336 0.4141 0.4141 0.4141
v -2.143126 -0.122853 -2.028580 0.4810 0.4810 0.4810
v -2.143126 -0.222853 -2.028580 0.3345 0.3345 0.3345
v -2.206735 -0.122853 0.970746 0.4642 0.4642 0.4642
v -2.206735 -0.222853 0.970746 0.4080 0.4080 0.4080
v -2.543036 -0.122853 -2.037061 0.3842 0.3842 0.3842
v -2.543036 -0.222853 -2.037061 0.3215 0.3215 0.3215
v -2.606645 -0.122853 0.962264 0.3701 0.3701 0.3701
v -2.606645 -0.222853 0.962264 0.2972 0.2972 0.2972
v -1.703415 -0.122853 -2.039829 0.3014 0.3014 0.3014
v -1.703415 -0.222853 -2.039829 0.3437 0.3437 0.3437
v -1.586158 -0.122853 0.957879 0.2925 0.2925 0.2925
v -1.586158 -0.222853 0.957879 0.3223 0.3223 0.3223
v -2.103109 -0.122853 -2.024194 0.4084 0.4084 0.4084
v -2.103109 -0.222853 -2.024194 0.3234 0.3234 0.3234
v -1.985853 -0.122853 0.973513 0.3640 0.3640 0.3640
v -1.985853 -0.222853 0.973513 0.3135 0.3135 0.3135
v -1.056911 -0.122853 -2.027201 0.5199 0.5199 0.5199
v -1.056911 -0.222853 -2.027201 0.3562 0.3562 0.3562
v -1.138040 -0.122853 0.971702 0.5006 0.5006 0.5006
v -1.138040 -0.222853 0.971702 0.4364 0.4364 0.4364
v -1.456765 -0.122853 -2.038018 0.3618 0.3618 0.3618
v -1.456765 -0.222853 -2.038018 0.3286 0.3286 0.3286
v -1.537894 -0.122853 0.960885 0.2796 0.2796 0.2796
v -1.537894 -0.222853 0.960885 0.3081 0.3081 0.3081
v -0.596460 -0.122853 -2.041262 0.5271 0.5271 0.5271
v -0.596460 -0.222853 -2.041262 0.4622 0.4622 0.4622
v -0.446944 -0.122853 0.955010 0.5089 0.5089 0.5089
v -0.446944 -0.222853 0.955010 0.4406 0.4406 0.4406
v -0.995963 -0.122853 -2.021326 0.4605 0.4605 0.4605
v -0.995963 -0.222853 -2.021326 0.3631 0.3631 0.3631
v -0.846447 -0.122853 0.974946 0.4367 0.4367 0.4367
v -0.846447 -0.222853 0.974946 0.3479 0.3479 0.3479
v -0.147865 -0.122853 -2.046431 0.5387 0.5387 0.5387
v -0.147865 -0.222853 -2.046431 0.4640 0.4640 0.4640
v 0.244619 -0.122853 0.927784 0.5212 0.5212 0.5212
v 0.244619 -0.222853 0.927784 0.3522 0.3522 0.3522
v -0.544427 -0.122853 -1.994100 0.4781 0.4781 0.4781
v -0.544427 -0.222853 -1.994100 0.3793 0.3793 0.3793
v -0.151943 -0.122853 0.980115 0.4476 0.4476 0.4476
v -0.151943 -0.222853 0.980115 0.3413 0.3413 0.3413
v 0.532535 -0.122853 -2.041293 0.5541 0.5541 0.5541
v 0.532535 -0.222853 -2.041293 0.4637 0.4637 0.4637
v 0.682810 -0.122853 0.954941 0.5431 0.5431 0.5431
v 0.682810 -0.222853 0.954941 0.4428 0.4428 0.4428
v 0.133037 -0.122853 -2.021256 0.4738 0.4738 0.4738
v 0.133037 -0.222853 -2.021256 0.3748 0.3748 0.3748
v 0.283312 -0.122853 0.974977 0.4521 0.4521 0.4521
v 0.283312 -0.222853 0.974977 0.3345 0.3345 0.3345
v -2.933156 -0.122853 -2.045343 0.4580 0.4580 0.4580
v -2.933156 -0.222853 -2.045343 0.4084 0.4084 0.4084
v -2.649756 -0.122853 0.941241 0.4495 0.4495 0.4495
v -2.649756 -0.222853 0.941241 0.3087 0.3087 0.3087
v -3.331367 -0.122853 -2.007557 0.3836 0.3836 0.3836
v -3.331367 -0.222853 -2.007557 0.3011 0.3011 0.3011
v -3.047967 -0.122853 0.979028 0.3618 0.3618 0.3618
v -3.047967 -0.222853 0.979028 0.2991 0.2991 0.2991
v -3.349997 -0.122853 -2.036713 0.4466 0.4466 0.4466
v -3.349997 -0.222853 -2.036713 0.3927 0.3927 0.3927
v -3.292538 -0.122853 0.962736 0.4340 0.4340 0.4340
v -3.292538 -0.222853 0.962736 0.3910 0.3910 0.3910
v -3.749923 -0.122853 -2.029052 0.3631 0.3631 0.3631
v -3.749923 -0.222853 -2.029052 0.2922 0.2922 0.2922
v -3.692465 -0.122853 0.970398 0.3463 0.3463 0.3463
v -3.692465 -0.222853 0.970398 0.2907 0.2907 0.2907
v -3.776367 -0.122853 -2.024450 0.4314 0.4314 0.4314
v -3.776367 -0.222853 -2.024450 0.2977 0.2977 0.2977
v -3.890649 -0.122853 0.973372 0.4270 0.4270 0.4270
v -3.890649 -0.222853 0.973372 0.3785 0.3785 0.3785
v -4.176076 -0.122853 -2.039688 0.3533 0.3533 0.3533
v -4.176076 -0.222853 -2.039688 0.3055 0.3055 0.3055
v -4.290359 -0.122853 0.958134 0.3494 0.3494 0.3494
v -4.290359 -0.222853 0.958134 0.2838 0.2838 0.2838
v -4.332870 -0.122853 -2.030402 0.4248 0.4248 0.4248
v -4.332870 -0.222853 -2.030402 0.3823 0.3823 0.3823
v -4.372273 -0.122853 0.969340 0.4120 0.4120 0.4120
v -4.372273 -0.222853 0.969340 0.2867 0.2867 0.2867
v -4.732836 -0.122853 -2.035655 0.3542 0.3542 0.3542
v -4.732836 -0.222853 -2.035655 0.2968 0.2968 0.2968
v -4.772239 -0.122853 0.964086 0.3399 0.3399 0.3399
v -4.772239 -0.222853 0.964086 0.2741 0.2741 0.2741
v -4.966873 -0.122853 -2.040211 0.4177 0.4177 0.4177
v -4.966873 -0.222853 -2.040211 0.3747 0.3747 0.3747
v -4.841380 -0.122853 0.957163 0.4063 0.4063 0.4063
v -4.841380 -0.222853 0.957163 0.2865 0.2865 0.2865
v -5.366523 -0.122853 -2.023479 0.2587 0.2587 0.2587
v -5.366523 -0.222853 -2.023479 0.2678 0.2678 0.2678
v -5.241030 -0.122853 0.973895 0.3125 0.3125 0.3125
v -5.241030 -0.222853 0.973895 0.2689 0.2689 0.2689
v -5.420168 -0.322853 0.750176 0.2463 0.2463 0.2463
v -5.420168 -0.222853 0.750176 0.2440 0.2440 0.2440
v -5.422719 -0.322853 0.550192 0.2333 0.2333 0.2333
v -5.422719 -0.222853 0.550192 0.3097 0.3097 0.3097
v 2.858645 -0.322853 0.673644 0.0213 0.0213 0.0213
v 2.858645 -0.222853 0.673644 0.6279 0.6279 0.6279
v 2.856094 -0.322853 0.473660 0.0175 0.0175 0.0175
v 2.856094 -0.222853 0.473660 0.6738 0.6738 0.6738
v -5.415849 -0.322853 -1.471335 0.2263 0.2263 0.2263
v -5.415849 -0.222853 -1.471335 0.2338 0.2338 0.2338
v -5.423329 -0.322853 -1.671195 0.2410 0.2410 0.2410
v -5.423329 -0.222853 -1.671195 0.2411 0.2411 0.2411
v 2.859255 -0.322853 -1.695748 0.0180 0.0180 0.0180
v 2.859255 -0.222853 -1.695748 0.6848 0.6848 0.6848
v 2.851774 -0.322853 -1.895608 0.0267 0.0267 0.0267
v 2.851774 -0.222853 -1.895608 0.6421 0.6421 0.6421
v -1.408612 -2.749538 -1.681603 0.2134 0.2134 0.2134
v -1.408612 0.285636 -1.681603 0.4389 0.4389 0.4389
v -1.397877 -2.749538 -1.981411 0.2129 0.2129 0.2129
v -1.397877 0.285636 -1.981411 0.4231 0.4231 0.4231
v -1.108804 -2.749538 -1.670869 0.2138 0.2138 0.2138
v -1.108804 0.285636 -1.670869 0.5427 0.5427 0.5427
v -1.098069 -2.749538 -1.970676 0.2134 0.2134 0.2134
v -1.098069 0.285636 -1.970676 0.5371 0.5371 0.5371
v -1.508571 -2.677503 0.856929 0.2141 0.2141 0.2141
v -1.508571 0.357671 0.856929 0.4063 0.4063 0.4063
v -1.441748 -2.677503 0.564466 0.2138 0.2138 0.2138
v -1.441748 0.357671 0.564466 0.4739 0.4739 0.4739
v -1.216107 -2.677503 0.923752 0.2134 0.2134 0.2134
v -1.216107 0.357671 0.923752 0.5022 0.5022 0.5022
v -1.149285 -2.677503 0.631288 0.2154 0.2154 0.2154
v -1.149285 0.357671 0.631288 0.5625 0.5625 0.5625
v 1.067947 -0.122853 -2.037948 0.5752 0.5752 0.5752
v 1.067947 -0.222853 -2.037948 0.4722 0.4722 0.4722
v 1.147758 -0.122853 0.960990 0.5442 0.5442 0.5442
v 1.147758 -0.222853 0.960990 0.4398 0.4398 0.4398
v 0.668089 -0.122853 -2.027306 0.4978 0.4978 0.4978
v 0.668089 -0.222853 -2.027306 0.3801 0.3801 0.3801
v 0.747900 -0.122853 0.971632 0.4779 0.4779 0.4779
v 0.747900 -0.222853 0.971632 0.3514 0.3514 0.3514
v 1.543644 -0.122853 -2.042354 0.5870 0.5870 0.5870
v 1.543644 -0.222853 -2.042354 0.4823 0.4823 0.4823
v 1.720893 -0.122853 0.952405 0.5606 0.5606 0.5606
v 1.720893 -0.222853 0.952405 0.4395 0.4395 0.4395
v 1.144342 -0.122853 -2.018721 0.5157 0.5157 0.5157
v 1.144342 -0.222853 -2.018721 0.3994 0.3994 0.3994
v 1.321592 -0.122853 0.976038 0.4883 0.4883 0.4883
v 1.321592 -0.222853 0.976038 0.3581 0.3581 0.3581
v 2.287122 -0.122853 -2.024368 0.5986 0.5986 0.5986
v 2.287122 -0.222853 -2.024368 0.4812 0.4812 0.4812
v 2.171882 -0.122853 0.973418 0.5606 0.5606 0.5606
v 2.171882 -0.222853 0.973418 0.4646 0.4646 0.4646
v 1.887418 -0.122853 -2.039733 0.5382 0.5382 0.5382
v 1.887418 -0.222853 -2.039733 0.3969 0.3969 0.3969
v 1.772178 -0.122853 0.958052 0.5043 0.5043 0.5043
v 1.772178 -0.222853 0.958052 0.3739 0.3739 0.3739
v 2.738377 -0.122853 -2.034615 0.6347 0.6347 0.6347
v 2.738377 -0.222853 -2.034615 0.5601 0.5601 0.5601
v 2.760859 -0.122853 0.965301 0.6080 0.6080 0.6080
v 2.760859 -0.222853 0.965301 0.5407 0.5407 0.5407
v 2.338388 -0.122853 -2.031617 0.5567 0.5567 0.5567
v 2.338388 -0.222853 -2.031617 0.4205 0.4205 0.4205
v 2.360871 -0.122853 0.968299 0.5271 0.5271 0.5271
v 2.360871 -0.222853 0.968299 0.3814 0.3814 0.3814
vn -0.9914 -0.0000 0.1308
vn -0.1308 -0.0000 -0.9914
vn 0.9914 -0.0000 -0.1308
vn 0.1308 -0.0000 0.9914
vn -0.0000 -1.0000 -0.0000
vn -0.0000 1.0000 -0.0000
vn -0.0212 -0.0000 0.9998
vn -0.9998 -0.0000 -0.0212
vn 0.9998 -0.0000 0.0212
vn 0.0212 -0.0000 -0.9998
vn 0.0391 -0.0000 0.9992
vn -0.9992 -0.0000 0.0391
vn 0.9992 -0.0000 -0.0391
vn -0.0391 -0.0000 -0.9992
vn -0.0270 -0.0000 0.9996
vn -0.9996 -0.0000 -0.0270
vn 0.9996 -0.0000 0.0270
vn 0.0270 -0.0000 -0.9996
vn 0.0498 -0.0000 0.9988
vn -0.9988 -0.0000 0.0498
vn 0.9988 -0.0000 -0.0498
vn -0.0498 -0.0000 -0.9988
vn 0.0501 -0.0000 0.9987
vn -0.9987 -0.0000 0.0501
vn 0.9987 -0.0000 -0.0501
vn -0.0501 -0.0000 -0.9987
vn 0.0945 -0.0000 0.9955
vn -0.9955 -0.0000 0.0945
vn 0.9955 -0.0000 -0.0945
vn -0.0945 -0.0000 -0.9955
vn 0.0192 -0.0000 0.9998
vn -0.9998 -0.0000 0.0192
vn 0.9998 -0.0000 -0.0192
vn -0.0192 -0.0000 -0.9998
vn -0.0381 -0.0000 0.9993
vn -0.9993 -0.0000 -0.0381
vn 0.9993 -0.0000 0.0381
vn 0.0381 -0.0000 -0.9993
vn -0.0131 -0.0000 0.9999
vn -0.9999 -0.0000 -0.0131
vn 0.9999 -0.0000 0.0131
vn 0.0131 -0.0000 -0.9999
vn 0.0418 -0.0000 0.9991
vn -0.9991 -0.0000 0.0418
vn 0.9991 -0.0000 -0.0418
vn -0.0418 -0.0000 -0.9991
vn -0.9999 -0.0000 0.0128
vn -0.0092 -0.0000 -1.0000
vn 0.9999 -0.0000 -0.0128
vn 0.0092 -0.0000 1.0000
vn -0.9993 -0.0000 0.0374
vn -0.0271 -0.0000 -0.9996
vn 0.9993 -0.0000 -0.0374
vn 0.0271 -0.0000 0.9996
vn -0.9994 -0.0000 -0.0358
vn 0.0358 -0.0000 -0.9994
vn 0.9994 -0.0000 0.0358
vn -0.0358 -0.0000 0.9994
vn -0.9749 -0.0000 -0.2227
vn 0.2227 -0.0000 -0.9749
vn 0.9749 -0.0000 0.2227
vn -0.2227 -0.0000 0.9749
vn 0.0266 -0.0000 0.9996
vn -0.9996 -0.0000 0.0266
vn 0.9996 -0.0000 -0.0266
vn -0.0266 -0.0000 -0.9996
vn 0.0591 -0.0000 0.9983
vn -0.9983 -0.0000 0.0591
vn 0.9983 -0.0000 -0.0591
vn -0.0591 -0.0000 -0.9983
vn -0.0384 -0.0000 0.9993
vn -0.9993 -0.0000 -0.0384
vn 0.9993 -0.0000 0.0384
vn 0.0384 -0.0000 -0.9993
vn 0.0075 -0.0000 1.0000
vn -1.0000 -0.0000 0.0075
vn 1.0000 -0.0000 -0.0075
vn -0.0075 -0.0000 -1.0000
vt 0.914003 0.436773
vt 0.611714 0.436773
vt 0.611714 0.406997
vt 0.914003 0.406997
vt 0.914003 0.347452
vt 0.611714 0.347452
vt 0.611714 0.317718
vt 0.914003 0.317718
vt 0.914003 0.486641
vt 0.611714 0.486641
vt 0.611714 0.456865
vt 0.914003 0.456865
vt 0.914003 0.317259
vt 0.611714 0.317259
vt 0.611714 0.287525
vt 0.914003 0.287525
vt 0.879714 0.142314
vt 0.879714 0.172193
vt 0.849836 0.172193
vt 0.849836 0.142314
vt 0.898569 0.625012
vt 0.898569 0.654890
vt 0.868691 0.654890
vt 0.868691 0.625012
vt 0.878435 0.759524
vt 0.878435 0.799363
vt 0.579649 0.799363
vt 0.579649 0.759524
vt 0.918216 0.719686
vt 0.918216 0.729646
vt 0.878435 0.729646
vt 0.878435 0.719686
vt 0.610265 0.028432
vt 0.610265 0.038392
vt 0.312203 0.038392
vt 0.312203 0.028432
vt 0.878435 0.719686
vt 0.878435 0.759525
vt 0.579649 0.759525
vt 0.579649 0.719686
vt 0.312203 0.028432
vt 0.014142 0.038392
vt 0.014142 0.028432
vt 0.918212 0.108109
vt 0.918212 0.118068
vt 0.878431 0.118068
vt 0.878431 0.108109
vt 0.878435 0.918877
vt 0.878435 0.958715
vt 0.579649 0.958715
vt 0.579649 0.918877
vt 0.878431 0.098149
vt 0.878431 0.108109
vt 0.838594 0.108109
vt 0.838594 0.098149
vt 0.910487 0.118068
vt 0.910487 0.128028
vt 0.611714 0.128028
vt 0.611714 0.118068
vt 0.878435 0.879039
vt 0.579649 0.879039
vt 0.910487 0.132354
vt 0.910487 0.142314
vt 0.611714 0.142314
vt 0.611714 0.132354
vt 0.838594 0.118068
vt 0.611714 0.277421
vt 0.611714 0.317259
vt 0.312928 0.317259
vt 0.312928 0.277421
vt 0.918198 0.098149
vt 0.918198 0.108109
vt 0.312077 0.018473
vt 0.312077 0.028432
vt 0.014142 0.028432
vt 0.014142 0.018473
vt 0.312928 0.237583
vt 0.312928 0.277421
vt 0.014142 0.277421
vt 0.014142 0.237583
vt 0.908200 0.028432
vt 0.908200 0.038392
vt 0.610265 0.038392
vt 0.610265 0.028432
vt 0.918636 0.684769
vt 0.918636 0.694728
vt 0.878869 0.694728
vt 0.878869 0.684769
vt 0.312928 0.357097
vt 0.312928 0.396935
vt 0.014142 0.396935
vt 0.014142 0.357097
vt 0.918267 0.799363
vt 0.918267 0.809322
vt 0.878435 0.809322
vt 0.878435 0.694728
vt 0.878435 0.704688
vt 0.579649 0.704688
vt 0.579649 0.694728
vt 0.611714 0.357097
vt 0.611714 0.396935
vt 0.312928 0.396935
vt 0.312928 0.357097
vt 0.848998 0.565257
vt 0.848998 0.575216
vt 0.550212 0.575216
vt 0.550212 0.565257
vt 0.918267 0.789403
vt 0.878435 0.799363
vt 0.878435 0.789403
vt 0.611714 0.516450
vt 0.611714 0.556288
vt 0.312928 0.556288
vt 0.312928 0.516450
vt 0.878239 0.088190
vt 0.878239 0.098149
vt 0.838594 0.098149
vt 0.838594 0.088190
vt 0.609967 0.018473
vt 0.609967 0.028432
vt 0.312203 0.018473
vt 0.611714 0.476612
vt 0.611714 0.516450
vt 0.312928 0.516450
vt 0.312928 0.476612
vt 0.908028 0.018473
vt 0.908028 0.028432
vt 0.610265 0.028432
vt 0.610265 0.018473
vt 0.919359 0.152273
vt 0.919359 0.162233
vt 0.879714 0.162233
vt 0.879714 0.152273
vt 0.611714 0.237583
vt 0.611714 0.277421
vt 0.312928 0.277421
vt 0.312928 0.237583
vt 0.918267 0.779444
vt 0.918267 0.789403
vt 0.878435 0.789403
vt 0.878435 0.779444
vt 0.910500 0.516450
vt 0.910500 0.526409
vt 0.611714 0.526409
vt 0.312928 0.197744
vt 0.312928 0.237583
vt 0.014142 0.237583
vt 0.014142 0.197744
vt 0.878435 0.704688
vt 0.878435 0.714647
vt 0.579649 0.714647
vt 0.918267 0.769484
vt 0.878435 0.769484
vt 0.312928 0.396935
vt 0.312928 0.436773
vt 0.014142 0.436773
vt 0.014142 0.396935
vt 0.918631 0.674809
vt 0.918631 0.684769
vt 0.878869 0.674809
vt 0.312610 0.038392
vt 0.312610 0.048351
vt 0.014142 0.048351
vt 0.014142 0.038392
vt 0.611714 0.197745
vt 0.611714 0.237583
vt 0.312928 0.237583
vt 0.312928 0.197745
vt 0.910148 0.048351
vt 0.910148 0.058311
vt 0.611680 0.058311
vt 0.611680 0.048351
vt 0.918631 0.664850
vt 0.878869 0.664850
vt 0.878435 0.839201
vt 0.579649 0.879039
vt 0.579649 0.839201
vt 0.918270 0.819282
vt 0.918270 0.829241
vt 0.878435 0.829241
vt 0.878435 0.819282
vt 0.910338 0.058311
vt 0.910338 0.068270
vt 0.611680 0.068270
vt 0.611680 0.058311
vt 0.611569 0.058311
vt 0.611569 0.068270
vt 0.312911 0.068270
vt 0.312911 0.058311
vt 0.918270 0.809322
vt 0.918270 0.819282
vt 0.878435 0.819282
vt 0.312928 0.118068
vt 0.312928 0.157906
vt 0.014142 0.157906
vt 0.014142 0.118068
vt 0.918616 0.595135
vt 0.918616 0.605095
vt 0.878877 0.605095
vt 0.878877 0.595135
vt 0.609477 0.008513
vt 0.609477 0.018473
vt 0.311809 0.018473
vt 0.311809 0.008513
vt 0.611714 0.118068
vt 0.611714 0.157907
vt 0.312928 0.157907
vt 0.312928 0.118068
vt 0.014142 0.018473
vt 0.014142 0.008513
vt 0.918615 0.605095
vt 0.918615 0.615054
vt 0.878877 0.615054
vt 0.878877 0.605095
vt 0.611714 0.396935
vt 0.611714 0.436773
vt 0.312928 0.436773
vt 0.312928 0.396935
vt 0.918231 0.739605
vt 0.918231 0.749565
vt 0.878435 0.749565
vt 0.878435 0.739605
vt 0.909612 0.038392
vt 0.909612 0.048351
vt 0.611392 0.048351
vt 0.611392 0.038392
vt 0.312928 0.317259
vt 0.312928 0.357097
vt 0.014142 0.357097
vt 0.014142 0.317259
vt 0.610897 0.038392
vt 0.610897 0.048351
vt 0.312677 0.048351
vt 0.312677 0.038392
vt 0.918231 0.729646
vt 0.918231 0.739605
vt 0.878435 0.739605
vt 0.848999 0.575216
vt 0.848999 0.615054
vt 0.550212 0.615054
vt 0.550212 0.575216
vt 0.918272 0.839696
vt 0.918272 0.849656
vt 0.878435 0.849656
vt 0.878435 0.839696
vt 0.910494 0.436946
vt 0.910494 0.446905
vt 0.611714 0.446905
vt 0.611714 0.436946
vt 0.312928 0.157906
vt 0.312928 0.197745
vt 0.014142 0.197745
vt 0.014142 0.157906
vt 0.910494 0.456865
vt 0.611714 0.446905
vt 0.918272 0.829241
vt 0.918272 0.839201
vt 0.918476 0.644931
vt 0.918476 0.654890
vt 0.898569 0.654890
vt 0.898569 0.644931
vt 0.838482 0.088190
vt 0.838482 0.098149
vt 0.014142 0.098149
vt 0.014142 0.088190
vt 0.918476 0.634971
vt 0.918476 0.644931
vt 0.898569 0.644931
vt 0.898569 0.634971
vt 0.838482 0.078230
vt 0.838482 0.088190
vt 0.014142 0.078230
vt 0.014142 0.674809
vt 0.838709 0.674809
vt 0.838778 0.694728
vt 0.014212 0.694728
vt 0.838709 0.674809
vt 0.014142 0.674809
vt 0.014212 0.654890
vt 0.838778 0.654890
vt 0.908754 0.575216
vt 0.908754 0.585176
vt 0.888836 0.585176
vt 0.888836 0.575216
vt 0.838594 0.108109
vt 0.838594 0.118068
vt 0.014142 0.108109
vt 0.908754 0.565257
vt 0.908754 0.575216
vt 0.888836 0.575216
vt 0.888836 0.565257
vt 0.014142 0.108109
vt 0.014142 0.098149
vt 0.014142 0.634972
vt 0.838607 0.634972
vt 0.838812 0.654890
vt 0.014347 0.654890
vt 0.014347 0.615054
vt 0.838812 0.615054
vt 0.914003 0.377224
vt 0.611714 0.377224
vt 0.611714 0.347452
vt 0.914003 0.347452
vt 0.914003 0.556288
vt 0.611714 0.526479
vt 0.914003 0.526479
vt 0.914003 0.406997
vt 0.914003 0.377224
vt 0.914003 0.516450
vt 0.878877 0.615054
vt 0.848998 0.615054
vt 0.848998 0.585176
vt 0.878877 0.585176
vt 0.868691 0.625012
vt 0.868691 0.654890
vt 0.838812 0.654890
vt 0.838812 0.625012
vt 0.914003 0.200964
vt 0.611714 0.200964
vt 0.611714 0.172192
vt 0.914003 0.172193
vt 0.914003 0.258630
vt 0.611714 0.258630
vt 0.611714 0.229735
vt 0.914003 0.229735
vt 0.914003 0.229735
vt 0.914003 0.200964
vt 0.908314 0.968675
vt 0.908314 0.998553
vt 0.878435 0.998553
vt 0.878435 0.968675
vt 0.908314 0.938796
vt 0.878435 0.938796
vt 0.611714 0.157906
vt 0.611714 0.197745
vt 0.312928 0.197745
vt 0.312928 0.157906
vt 0.888836 0.565257
vt 0.888836 0.575216
vt 0.848999 0.575216
vt 0.848999 0.565257
vt 0.312857 0.058311
vt 0.312857 0.068270
vt 0.014142 0.068270
vt 0.014142 0.058311
vt 0.878435 0.958715
vt 0.878435 0.998553
vt 0.579649 0.998553
vt 0.579649 0.958715
vt 0.910395 0.068270
vt 0.910395 0.078230
vt 0.611680 0.078230
vt 0.611680 0.068270
vt 0.888836 0.575216
vt 0.888836 0.585176
vt 0.848999 0.585176
vt 0.312928 0.476612
vt 0.312928 0.436773
vt 0.918259 0.704688
vt 0.918259 0.714647
vt 0.878435 0.714647
vt 0.611680 0.068271
vt 0.611680 0.078230
vt 0.312911 0.078230
vt 0.312911 0.068270
vt 0.611714 0.317259
vt 0.611714 0.357097
vt 0.312928 0.357097
vt 0.312928 0.317259
vt 0.312911 0.078230
vt 0.014142 0.078230
vt 0.014142 0.068270
vt 0.918259 0.694728
vt 0.918259 0.704688
vt 0.014142 0.556288
vt 0.014142 0.516450
vt 0.919452 0.162233
vt 0.919452 0.172193
vt 0.879714 0.172193
vt 0.879714 0.162233
vt 0.311801 -0.001447
vt 0.311801 0.008513
vt 0.014142 0.008513
vt 0.014142 -0.001447
vt 0.312928 0.476612
vt 0.312928 0.516450
vt 0.014142 0.516450
vt 0.014142 0.476612
vt 0.907924 0.008513
vt 0.907924 0.018472
vt 0.610265 0.008513
vt 0.918615 0.585176
vt 0.918615 0.595135
vt 0.878877 0.595135
vt 0.878877 0.585176
vt 0.312928 0.476612
vt 0.014142 0.476612
vt 0.918261 0.749565
vt 0.918261 0.759524
vt 0.878435 0.749565
vt 0.611392 0.048351
vt 0.611392 0.058311
vt 0.312857 0.058311
vt 0.312857 0.048351
vt 0.312928 0.277421
vt 0.312928 0.317259
vt 0.014142 0.317259
vt 0.014142 0.277421
vt 0.312677 0.048351
vt 0.312677 0.058311
vt 0.014142 0.058311
vt 0.014142 0.048351
vt 0.918261 0.759525
vt 0.918261 0.769484
s 0
f 1/1/1 2/2/1 4/3/1 3/4/1
f 3/5/2 4/6/2 8/7/2 7/8/2
f 7/9/3 8/10/3 6/11/3 5/12/3
f 5/13/4 6/14/4 2/15/4 1/16/4
f 3/17/5 7/18/5 5/19/5 1/20/5
f 8/21/6 4/22/6 2/23/6 6/24/6
f 9/25/6 13/26/6 15/27/6 11/28/6
f 12/29/7 11/30/7 15/31/7 16/32/7
f 16/33/8 15/34/8 13/35/8 14/36/8
f 14/37/5 10/38/5 12/39/5 16/40/5
f 10/41/9 9/35/9 11/42/9 12/43/9
f 14/44/10 13/45/10 9/46/10 10/47/10
f 17/48/6 21/49/6 23/50/6 19/51/6
f 20/52/11 19/53/11 23/54/11 24/55/11
f 24/56/12 23/57/12 21/58/12 22/59/12
f 22/60/5 18/48/5 20/51/5 24/61/5
f 18/62/13 17/63/13 19/64/13 20/65/13
f 22/47/14 21/46/14 17/66/14 18/54/14
f 25/67/6 29/68/6 31/69/6 27/70/6
f 28/71/15 27/72/15 31/53/15 32/52/15
f 32/73/16 31/74/16 29/75/16 30/76/16
f 30/77/5 26/78/5 28/79/5 32/80/5
f 26/81/17 25/82/17 27/83/17 28/84/17
f 30/85/18 29/86/18 25/87/18 26/88/18
f 33/89/6 37/90/6 39/91/6 35/92/6
f 36/93/19 35/94/19 39/95/19 40/26/19
f 40/96/20 39/97/20 37/98/20 38/99/20
f 38/100/5 34/101/5 36/102/5 40/103/5
f 34/104/21 33/105/21 35/106/21 36/107/21
f 38/108/22 37/93/22 33/109/22 34/110/22
f 41/111/6 45/112/6 47/113/6 43/114/6
f 44/115/4 43/116/4 47/117/4 48/118/4
f 48/119/1 47/120/1 45/36/1 46/121/1
f 46/122/5 42/123/5 44/124/5 48/125/5
f 42/126/3 41/127/3 43/128/3 44/129/3
f 46/130/2 45/131/2 41/132/2 42/133/2
f 49/134/6 53/135/6 55/136/6 51/137/6
f 52/138/23 51/139/23 55/140/23 56/141/23
f 56/142/24 55/143/24 53/144/24 54/111/24
f 54/145/5 50/146/5 52/147/5 56/148/5
f 50/149/25 49/150/25 51/151/25 52/98/25
f 54/152/26 53/138/26 49/141/26 50/153/26
f 57/154/6 61/155/6 63/156/6 59/157/6
f 60/158/27 59/159/27 63/88/27 64/160/27
f 64/161/28 63/162/28 61/163/28 62/164/28
f 62/165/5 58/166/5 60/167/5 64/168/5
f 58/169/29 57/170/29 59/171/29 60/172/29
f 62/173/30 61/158/30 57/160/30 58/174/30
f 65/175/6 69/60/6 71/176/6 67/177/6
f 68/178/31 67/179/31 71/180/31 72/181/31
f 72/182/32 71/183/32 69/184/32 70/185/32
f 70/26/5 66/175/5 68/177/5 72/27/5
f 66/186/33 65/187/33 67/188/33 68/189/33
f 70/190/34 69/191/34 65/192/34 66/95/34
f 73/193/6 77/194/6 79/195/6 75/196/6
f 76/197/35 75/198/35 79/199/35 80/200/35
f 80/201/36 79/202/36 77/203/36 78/204/36
f 78/205/5 74/206/5 76/207/5 80/208/5
f 74/204/37 73/203/37 75/209/37 76/210/37
f 78/211/38 77/212/38 73/213/38 74/214/38
f 81/215/6 85/216/6 87/217/6 83/218/6
f 84/219/39 83/220/39 87/221/39 88/222/39
f 88/223/40 87/224/40 85/225/40 86/226/40
f 86/227/5 82/228/5 84/229/5 88/230/5
f 82/231/41 81/232/41 83/233/41 84/234/41
f 86/235/42 85/236/42 81/237/42 82/31/42
f 89/238/6 93/239/6 95/240/6 91/241/6
f 92/242/43 91/243/43 95/244/43 96/245/43
f 96/246/44 95/247/44 93/248/44 94/249/44
f 94/250/5 90/251/5 92/252/5 96/253/5
f 90/247/45 89/254/45 91/11/45 92/255/45
f 94/256/46 93/257/46 89/175/46 90/180/46
f 97/258/47 98/259/47 100/260/47 99/261/47
f 99/262/48 100/263/48 104/264/48 103/265/48
f 103/266/49 104/267/49 102/268/49 101/269/49
f 101/270/50 102/271/50 98/265/50 97/272/50
f 99/273/5 103/274/5 101/275/5 97/276/5
f 104/277/6 100/278/6 98/279/6 102/280/6
f 105/281/51 106/282/51 108/283/51 107/284/51
f 107/285/52 108/286/52 112/196/52 111/287/52
f 111/288/53 112/289/53 110/290/53 109/291/53
f 109/117/54 110/285/54 106/292/54 105/293/54
f 107/294/5 111/295/5 109/296/5 105/297/5
f 112/295/6 108/294/6 106/298/6 110/299/6
f 113/300/55 114/301/55 116/302/55 115/303/55
f 115/304/56 116/112/56 120/305/56 119/306/56
f 119/307/57 120/3/57 118/301/57 117/308/57
f 117/309/58 118/123/58 114/10/58 113/9/58
f 115/310/5 119/311/5 117/312/5 113/313/5
f 120/314/6 116/315/6 114/316/6 118/317/6
f 121/318/59 122/319/59 124/320/59 123/321/59
f 123/322/60 124/323/60 128/324/60 127/325/60
f 127/326/61 128/324/61 126/319/61 125/327/61
f 125/16/62 126/15/62 122/323/62 121/322/62
f 123/328/5 127/329/5 125/330/5 121/331/5
f 128/332/6 124/328/6 122/331/6 126/333/6
f 129/334/6 133/335/6 135/336/6 131/337/6
f 132/338/63 131/339/63 135/340/63 136/341/63
f 136/342/64 135/343/64 133/344/64 134/345/64
f 134/346/5 130/347/5 132/348/5 136/349/5
f 130/350/65 129/351/65 131/352/65 132/353/65
f 134/354/66 133/355/66 129/356/66 130/238/66
f 137/216/6 141/122/6 143/357/6 139/358/6
f 140/359/67 139/360/67 143/361/67 144/97/67
f 144/362/68 143/363/68 141/364/68 142/365/68
f 142/366/5 138/367/5 140/368/5 144/369/5
f 138/365/69 137/370/69 139/371/69 140/372/69
f 142/373/70 141/374/70 137/97/70 138/96/70
f 145/114/6 149/113/6 151/375/6 147/376/6
f 148/377/71 147/378/71 151/379/71 152/380/71
f 152/381/72 151/382/72 149/383/72 150/384/72
f 150/385/5 146/386/5 148/387/5 152/388/5
f 146/389/73 145/390/73 147/129/73 148/391/73
f 150/392/74 149/393/74 145/394/74 146/395/74
f 153/155/6 157/396/6 159/397/6 155/156/6
f 156/398/75 155/399/75 159/25/75 160/400/75
f 160/401/76 159/402/76 157/403/76 158/404/76
f 158/405/5 154/406/5 156/407/5 160/408/5
f 154/409/77 153/410/77 155/411/77 156/412/77
f 158/413/78 157/414/78 153/153/78 154/25/78
