# Blender 5.2.2 LTS
# www.blender.org
o Cone.006
v 0.458907 4.180392 -1.188376
v 1.258618 4.180392 -0.196763
v 0.799711 4.180392 0.991613
v -0.458907 4.180392 1.188376
v -1.258618 4.180392 0.196763
v -0.799711 4.180392 -0.991613
v 0.000000 6.693042 0.000000
vn 0.7127 0.4020 -0.5748
vn 0.8542 0.4020 0.3298
vn 0.1414 0.4020 0.9046
vn -0.7127 0.4020 0.5748
vn -0.0000 -1.0000 -0.0000
vn -0.8542 0.4020 -0.3298
vn -0.1414 0.4020 -0.9046
vt 0.250000 0.490000
vt 0.250000 0.250000
vt 0.457846 0.370000
vt 0.457846 0.130000
vt 0.250000 0.010000
vt 0.042154 0.130000
vt 0.750000 0.490000
vt 0.957846 0.370000
vt 0.957846 0.130000
vt 0.750000 0.010000
vt 0.542154 0.130000
vt 0.542154 0.370000
vt 0.042154 0.370000
s 0
f 1/1/1 7/2/1 2/3/1
f 2/3/2 7/2/2 3/4/2
f 3/4/3 7/2/3 4/5/3
f 4/5/4 7/2/4 5/6/4
f 1/7/5 2/8/5 3/9/5 4/10/5 5/11/5 6/12/5
f 5/6/6 7/2/6 6/13/6
f 6/13/7 7/2/7 1/1/7
o Cone.007
v -0.498447 3.000183 -1.460768
v 1.015839 3.000183 -1.162052
v 1.514286 3.000183 0.298716
v 0.498447 3.000183 1.460768
v -1.015839 3.000183 1.162052
v -1.514286 3.000183 -0.298716
v 0.000000 5.512834 0.000000
vn 0.1709 0.4697 -0.8662
vn 0.8355 0.4697 -0.2851
vn 0.6647 0.4697 0.5810
vn -0.1709 0.4697 0.8662
vn -0.0000 -1.0000 -0.0000
vn -0.8355 0.4697 0.2851
vn -0.6647 0.4697 -0.5810
vt 0.250000 0.490000
vt 0.250000 0.250000
vt 0.457846 0.370000
vt 0.457846 0.130000
vt 0.250000 0.010000
vt 0.042154 0.130000
vt 0.750000 0.490000
vt 0.957846 0.370000
vt 0.957846 0.130000
vt 0.750000 0.010000
vt 0.542154 0.130000
vt 0.542154 0.370000
vt 0.042154 0.370000
s 0
f 8/14/8 14/15/8 9/16/8
f 9/16/9 14/15/9 10/17/9
f 10/17/10 14/15/10 11/18/10
f 11/18/11 14/15/11 12/19/11
f 8/20/12 9/21/12 10/22/12 11/23/12 12/24/12 13/25/12
f 12/19/13 14/15/13 13/26/13
f 13/26/14 14/15/14 8/14/14
o Cone.008
v 0.000000 1.669707 -1.730648
v 1.498785 1.669707 -0.865324
v 1.498785 1.669707 0.865324
v 0.000000 1.669707 1.730648
v -1.498785 1.669707 0.865324
v -1.498785 1.669707 -0.865324
v 0.000000 4.119060 0.000000
vn 0.4265 0.5219 -0.7387
vn 0.8530 0.5219 -0.0000
vn 0.4265 0.5219 0.7387
vn -0.4265 0.5219 0.7387
vn -0.0000 -1.0000 -0.0000
vn -0.8530 0.5219 -0.0000
vn -0.4265 0.5219 -0.7387
vt 0.250000 0.490000
vt 0.250000 0.250000
vt 0.457846 0.370000
vt 0.457846 0.130000
vt 0.250000 0.010000
vt 0.042154 0.130000
vt 0.750000 0.490000
vt 0.957846 0.370000
vt 0.957846 0.130000
vt 0.750000 0.010000
vt 0.542154 0.130000
vt 0.542154 0.370000
vt 0.042154 0.370000
s 0
f 15/27/15 21/28/15 16/29/15
f 16/29/16 21/28/16 17/30/16
f 17/30/17 21/28/17 18/31/17
f 18/31/18 21/28/18 19/32/18
f 15/33/19 16/34/19 17/35/19 18/36/19 19/37/19 20/38/19
f 19/32/20 21/28/20 20/39/20
f 20/39/21 21/28/21 15/27/21
