# Blender 5.0.1
# www.blender.org
o Suzanne
v 0.430087 0.260270 0.467437
v -0.175717 0.194471 0.639177
v -0.427944 0.260187 0.467010
v 0.171626 0.192071 0.641233
v 0.000000 -0.187500 0.796875
v -0.203020 -0.317915 -0.527631
v 0.256842 0.021833 0.736958
v 0.000000 -0.195312 0.750000
v 0.000000 -0.140625 0.742188
v -0.266756 0.411683 0.772554
v 0.028672 -0.898149 0.614958
v -0.638324 0.272835 0.580480
v 0.300026 0.409632 0.789587
v -0.317171 0.116397 0.807664
v 0.002929 1.032462 0.270484
v -0.216890 -0.255448 0.680843
v 0.644503 0.285267 0.569438
v -1.010515 0.221835 -0.374245
v 1.018603 0.471532 -0.372211
v 0.851528 -0.013385 -0.294184
vn 0.0975 -0.1445 0.9847
vn -1.0000 -0.0000 -0.0000
vn -0.5056 0.6551 0.5615
vn 0.1006 -0.1273 0.9868
vn -0.0838 -0.3418 0.9360
vn -0.9338 -0.3576 0.0078
vn -0.0832 0.6819 -0.7267
vn 0.6201 0.6853 0.3819
vn -0.6937 0.6811 0.2341
vn 0.2538 0.5392 0.8030
vn 0.0173 0.8819 -0.4711
vn 0.3398 -0.8090 -0.4797
vn -0.5505 -0.8340 0.0368
vn 0.8374 -0.4224 0.3468
vn 0.9130 -0.2646 0.3104
vn -0.6510 -0.3964 0.6474
vn -0.0294 0.1230 0.9920
vn -0.0474 -0.1198 0.9917
vn -0.4231 0.6879 0.5897
vn 0.4852 -0.7321 -0.4781
vn 0.2764 -0.2448 -0.9293
vn -0.0279 0.2344 -0.9717
vn -0.5244 0.6615 0.5362
vn -0.7678 -0.5500 0.3287
vn 0.5167 -0.2372 0.8226
vt 0.586522 0.317228
vt 0.418896 0.282949
vt 0.566595 0.242410
vt 0.500000 0.192167
vt 0.500000 0.203867
vt 0.500000 0.197278
vt 0.448911 0.163442
vt 0.172867 0.076484
vt 0.486990 0.068260
vt 0.196039 0.193041
vt 0.124438 0.353880
vt 0.007141 0.196676
vt 0.891638 0.374542
vt 0.701954 0.293065
vt 0.813071 0.206367
vt 0.363265 0.294410
vt 0.802929 0.475819
vt 0.734532 0.447084
vt 0.846675 0.049571
vt 0.800994 0.165603
vt 0.525134 0.065776
vt 0.636978 0.295838
vt 0.422799 0.324594
vt 0.230751 0.457510
s 0
f 13/1/1 14/2/1 7/3/1
f 5/4/2 9/5/2 8/6/2
f 5/4/3 9/5/3 16/7/3
f 9/5/4 7/3/4 14/2/4
f 16/7/5 9/5/5 14/2/5
f 16/7/6 6/8/6 11/9/6
f 18/10/7 15/11/7 19/12/7
f 15/13/8 17/14/8 19/15/8
f 12/16/9 15/11/9 18/10/9
f 17/14/10 15/13/10 10/17/10
f 10/17/11 13/18/11 17/14/11
f 6/19/12 20/20/12 11/21/12
f 16/7/13 18/10/13 6/8/13
f 17/22/14 11/21/14 20/20/14
f 17/22/15 20/20/15 19/15/15
f 16/7/16 14/2/16 12/16/16
f 13/1/17 10/23/17 14/2/17
f 7/3/18 16/7/18 11/21/18
f 5/4/19 7/3/19 9/5/19
f 16/7/20 7/3/20 5/4/20
f 19/15/21 20/20/21 6/19/21
f 18/10/22 19/12/22 6/8/22
f 12/16/23 10/24/23 15/11/23
f 16/7/24 12/16/24 18/10/24
f 17/22/25 7/3/25 11/21/25
l 4 1
l 2 3
