# Blender 5.0.1
# www.blender.org
o Suzanne
v -0.484034 0.020155 0.576947
v 0.484034 0.020155 0.576947
v 0.103827 0.159850 0.640278
v -0.100956 0.158959 0.641930
v 0.393837 0.378491 0.790033
v -0.278507 0.462918 0.598653
v -0.393098 0.377848 0.791020
v 0.400844 0.371054 0.515477
v -0.556448 0.315928 0.530197
v 0.633369 0.242106 0.566534
v -0.318941 0.114315 0.809523
v 0.320532 0.114372 0.808700
v 0.000000 -0.187500 0.796875
v 0.073286 -0.282871 -0.680184
v -0.377194 -0.978813 0.472659
v 0.249936 -0.224852 0.606666
v -0.262416 0.387254 0.778395
v 0.246989 0.560878 0.790464
v 0.000000 -0.195312 0.750000
v 0.000000 -0.140625 0.742188
v -0.788297 0.034569 0.504209
v -0.816663 0.389995 0.639416
v -0.249049 0.754018 0.763512
v -0.004906 0.392504 0.732824
v -0.091305 -0.118257 0.792388
v 0.115383 -0.174545 0.780086
v -0.101798 -0.288732 0.770108
v -0.001748 -0.841543 0.696197
v -0.412973 0.388532 0.752534
v -0.553093 0.260929 0.693617
v -0.414005 0.087832 0.718920
v 0.308409 0.386538 0.810780
v 0.222894 0.132351 0.756619
v 0.414528 0.069190 0.697299
v 0.560609 0.249865 0.677448
v -0.219586 0.131121 0.753801
v 0.250629 0.772171 0.701714
v -0.720984 0.431843 0.361039
v 0.889123 0.239453 0.487090
v -0.345166 0.964651 0.184289
v -0.844113 0.526019 -0.435426
v -0.249663 -0.273285 0.424921
v 0.369324 -0.984917 0.510006
v 0.169166 -0.447829 0.294486
v 0.296324 0.679624 -0.777983
v 0.465608 0.900982 0.152219
v 0.717688 0.437234 0.362756
v -0.635407 -0.090076 -0.350270
v -1.188433 0.031706 -0.444984
v 0.914063 0.423212 -0.246952
v 0.761512 0.005499 -0.247264
v -0.983413 0.301681 -0.354455
v -0.785826 0.010129 -0.252636
v -0.851212 0.363598 -0.191879
v 1.149961 0.364428 -0.425792
v -1.213064 0.445554 -0.429498
v 1.291283 0.466559 -0.467281
v 1.188219 0.021499 -0.461148
v 0.696472 -0.061959 -0.374711
vn 0.6385 -0.1235 0.7597
vn -0.8113 -0.1895 0.5531
vn -0.5709 0.2145 0.7925
vn 0.5671 0.2154 0.7950
vn 0.6537 0.4667 0.5958
vn -0.4838 0.8699 0.0965
vn 0.4868 0.8734 -0.0112
vn -0.3759 -0.7846 0.4930
vn -0.4282 0.3562 0.8305
vn -0.2408 0.0282 0.9702
vn 0.1735 0.0336 0.9843
vn -0.2427 0.0482 0.9689
vn 0.4965 0.1931 0.8463
vn -0.3527 -0.3572 0.8649
vn 0.7417 -0.2111 0.6367
vn -0.0066 0.0785 0.9969
vn -0.0350 -0.8243 0.5650
vn 0.3842 -0.1813 0.9053
vn -0.4472 -0.1976 0.8724
vn -1.0000 -0.0000 -0.0000
vn 0.4777 0.6670 0.5717
vn -0.3831 -0.3461 0.8564
vn 0.5153 0.3837 0.7663
vn 0.7243 -0.5382 0.4309
vn -0.4567 -0.2418 0.8561
vn 0.1657 0.2576 -0.9519
vn 0.6672 0.7133 0.2146
vn 0.0437 -0.3580 -0.9327
vn -0.3012 -0.0101 -0.9535
vn -0.2442 0.8733 -0.4215
vn 0.8007 0.5466 0.2453
vn -0.7712 0.6073 0.1910
vn -0.4545 0.2355 -0.8590
vn 0.4441 0.3692 -0.8163
vn -0.9326 0.3123 0.1811
vn 0.4796 -0.8562 -0.1921
vn 0.6306 -0.0795 -0.7720
vn -0.4662 -0.2742 -0.8411
vn 0.3218 -0.0615 0.9448
vn -0.1063 -0.0021 0.9943
vn 0.4995 -0.3736 0.7816
vn 0.9380 -0.3425 -0.0539
vn -0.5703 -0.2405 0.7855
vn -0.9832 -0.1823 0.0027
vn 0.5585 -0.2046 0.8039
vn 0.4490 -0.0419 0.8926
vn -0.4299 0.0238 0.9026
vn -0.1706 0.8221 0.5433
vn 0.1788 0.0474 -0.9828
vn 0.6570 -0.4124 0.6311
vn -0.7922 -0.0987 0.6023
vn -0.3176 -0.9353 0.1561
vn 0.3127 -0.9367 0.1572
vn -0.5894 0.8070 -0.0369
vn 0.7959 0.0483 0.6035
vn -0.8995 0.1892 0.3938
vn 0.4472 -0.4111 0.7943
vn 0.5310 0.3204 0.7845
vn -0.2427 -0.0899 0.9659
vn -0.3926 -0.0599 0.9178
vn -0.3422 -0.9351 -0.0919
vn 0.1752 -0.0650 0.9824
vn 0.0220 -0.1286 0.9915
vn 0.0094 0.7592 0.6508
vn -0.1167 -0.2167 -0.9692
vn 0.0233 -0.1310 0.9911
vn -0.9191 0.0051 0.3939
vn 0.1605 -0.3717 0.9144
vn 0.2462 -0.9497 -0.1936
vn 0.5652 0.2891 0.7726
vn -0.5304 0.8459 -0.0551
vn -0.9468 0.0456 -0.3186
vn 0.9090 0.1900 -0.3709
vn 0.2001 0.6510 0.7323
vn 0.4874 -0.1993 -0.8501
vn -0.2836 -0.0317 -0.9584
vn 0.0664 0.9679 -0.2424
vn 0.5671 0.7720 -0.2869
vn -0.5023 -0.8639 0.0361
vn -0.3716 0.5178 0.7706
vn 0.6742 0.7107 0.2008
vn -0.9528 0.2320 0.1958
vn 0.6505 -0.7350 0.1914
vn -0.3541 0.2402 -0.9038
vn 0.1142 -0.9010 0.4186
vn 0.1802 -0.2132 -0.9602
vn -0.3413 -0.0554 0.9383
vn 0.2180 -0.9042 0.3673
vn -0.2654 -0.8471 0.4605
vn 0.0130 -0.1326 -0.9911
vt 0.876541 0.592647
vt 0.855497 0.629532
vt 0.781448 0.527061
vt 0.848505 0.875897
vt 0.885339 0.855258
vt 0.966920 0.911934
vt 0.913858 0.712211
vt 0.766181 0.817419
vt 0.917660 0.766841
vt 0.904220 0.518206
vt 0.315697 0.243588
vt 0.395670 0.135930
vt 0.481180 0.198122
vt 0.501381 0.387975
vt 0.586825 0.350687
vt 0.597404 0.403247
vt 0.585978 0.311324
vt 0.418037 0.312642
vt 0.406368 0.394036
vt 0.327061 0.317007
vt 0.686911 0.283383
vt 0.608310 0.296086
vt 0.392523 0.295979
vt 0.521664 0.186010
vt 0.595813 0.168630
vt 0.573207 0.285679
vt 0.428270 0.284310
vt 0.531261 0.065855
vt 0.498850 0.083587
vt 0.468665 0.062782
vt 0.481006 0.170241
vt 0.500000 0.192167
vt 0.500000 0.203867
vt 0.500000 0.197278
vt 0.593347 0.281299
vt 0.406653 0.281173
vt 0.403546 0.309479
vt 0.702593 0.332748
vt 0.621745 0.074837
vt 0.520125 0.029824
vt 0.380697 0.027237
vt 0.167844 0.207404
vt 0.124438 0.353880
vt 0.007141 0.196676
vt 0.855079 0.336210
vt 0.748849 0.323249
vt 0.808890 0.206472
vt 0.248979 0.320844
vt 0.802929 0.475819
vt 0.734532 0.447084
vt 0.265611 0.446814
vt 0.206279 0.465018
vt 0.199606 0.202260
vt 0.846675 0.049571
vt 0.784330 0.178082
vt 0.825762 0.147055
vt 0.956426 0.202762
vt 0.159908 0.032776
vt 0.195001 0.151137
vt 0.538708 0.805879
vt 0.571510 0.725280
vt 0.696296 0.707556
vt 0.674150 0.815538
vt 0.418214 0.863717
vt 0.318905 0.903519
vt 0.128065 0.802240
vt 0.312444 0.714197
vt 0.214801 0.178280
vt 0.442034 0.714031
vt 0.255119 0.811296
vt 0.187129 0.734549
vt 0.030670 0.553627
vt 0.106907 0.584723
vt 0.039093 0.699621
vt 0.184976 0.594008
vt 0.757430 0.638186
vt 0.840055 0.974229
vt 0.262986 0.322234
vt 0.917611 0.401774
vt 0.686998 0.563174
vt 0.559167 0.585862
s 0
f 5/1/1 12/2/1 10/3/1
f 11/4/2 7/5/2 9/6/2
f 12/2/3 5/1/3 3/7/3
f 7/5/4 11/4/4 4/8/4
f 7/5/5 4/8/5 6/9/5
f 7/5/6 6/9/6 9/6/6
f 10/3/7 8/10/7 5/1/7
f 21/11/8 42/12/8 25/13/8
f 24/14/9 18/15/9 37/16/9
f 18/15/10 24/14/10 32/17/10
f 17/18/11 24/14/11 23/19/11
f 22/20/12 17/18/12 23/19/12
f 39/21/13 18/15/13 35/22/13
f 21/11/14 30/23/14 22/20/14
f 26/24/15 16/25/15 33/26/15
f 33/26/16 36/27/16 26/24/16
f 43/28/17 28/29/17 15/30/17
f 26/24/18 28/29/18 43/28/18
f 28/29/19 27/31/19 15/30/19
f 13/32/20 20/33/20 19/34/20
f 13/32/21 20/33/21 25/13/21
f 20/33/22 26/24/22 36/27/22
f 25/13/23 20/33/23 36/27/23
f 16/25/24 35/22/24 34/35/24
f 30/23/25 21/11/25 31/36/25
f 17/18/26 30/23/26 29/37/26
f 39/21/27 47/38/27 37/16/27
f 44/39/28 43/28/28 15/40/28
f 44/41/29 15/30/29 42/12/29
f 41/42/30 40/43/30 45/44/30
f 46/45/31 47/46/31 50/47/31
f 38/48/32 40/43/32 41/42/32
f 24/49/33 37/50/33 47/46/33
f 23/51/34 24/52/34 38/48/34
f 41/42/35 54/53/35 38/48/35
f 14/54/36 51/55/36 44/39/36
f 59/56/37 45/57/37 50/47/37
f 41/42/38 14/58/38 48/59/38
f 55/60/39 58/61/39 57/62/39
f 36/27/40 33/26/40 32/17/40 24/14/40
f 55/60/41 57/63/41 50/64/41
f 39/21/42 51/55/42 50/47/42
f 54/65/43 56/66/43 53/67/43
f 21/11/44 54/53/44 53/68/44
f 51/69/45 55/60/45 50/64/45
f 58/61/46 55/60/46 51/69/46
f 52/70/47 49/71/47 53/67/47
f 54/72/48 41/73/48 56/74/48
f 49/71/49 56/74/49 48/75/49
f 10/3/50 12/2/50 2/76/50
f 1/77/51 11/4/51 9/6/51
f 2/76/52 12/2/52 3/7/52
f 4/8/53 11/4/53 1/77/53
f 5/1/54 8/10/54 3/7/54
f 16/25/55 26/24/55 43/28/55
f 15/30/56 27/31/56 42/12/56
f 16/25/57 39/21/57 35/22/57
f 37/16/58 18/15/58 39/21/58
f 22/20/59 30/23/59 17/18/59
f 25/13/60 36/27/60 21/11/60
f 14/58/61 44/41/61 42/12/61 48/59/61
f 36/27/62 24/14/62 17/18/62
f 26/24/63 27/31/63 28/29/63
f 13/32/64 26/24/64 20/33/64
f 25/13/65 26/24/65 13/32/65
f 27/31/66 26/24/66 25/13/66
f 27/31/67 25/13/67 42/12/67
f 33/26/68 16/25/68 34/35/68
f 31/36/69 21/11/69 36/27/69
f 18/15/70 32/17/70 35/22/70
f 22/20/71 23/19/71 38/78/71
f 21/11/72 22/20/72 38/48/72
f 16/25/73 43/28/73 44/39/73
f 40/79/74 24/49/74 47/46/74 46/45/74
f 45/57/75 59/56/75 14/54/75
f 41/42/76 45/44/76 14/58/76
f 40/79/77 46/45/77 45/57/77
f 45/57/78 46/45/78 50/47/78
f 53/68/79 48/59/79 42/12/79 21/11/79
f 38/48/80 24/52/80 40/43/80
f 39/21/81 50/47/81 47/46/81
f 38/48/82 54/53/82 21/11/82
f 44/39/83 51/55/83 39/21/83 16/25/83
f 50/80/84 57/62/84 58/61/84 59/81/84
f 14/54/85 59/56/85 51/55/85
f 53/67/86 56/66/86 52/70/86
f 52/70/87 56/66/87 49/71/87
f 58/61/88 51/69/88 59/81/88
f 48/75/89 53/67/89 49/71/89
f 48/75/90 56/74/90 41/73/90
