# Blender 5.0.1
# www.blender.org
o pillar
v -0.600000 0.000000 0.600000
v -0.600000 20.000000 0.600000
v -0.600000 0.000000 -0.600000
v -0.600000 20.000000 -0.600000
v 0.600000 0.000000 0.600000
v 0.600000 20.000000 0.600000
v 0.600000 0.000000 -0.600000
v 0.600000 20.000000 -0.600000
v -0.600000 0.500000 0.600000
v -0.600000 0.500000 -0.600000
v 0.600000 0.500000 -0.600000
v 0.600000 0.500000 0.600000
v -0.600000 19.500000 0.600000
v -0.600000 19.500000 -0.600000
v 0.600000 19.500000 -0.600000
v 0.600000 19.500000 0.600000
v -1.024264 19.500000 1.024264
v -1.024264 20.000000 1.024264
v -1.024264 20.000000 -1.024264
v 1.024264 20.000000 -1.024264
v 1.024264 20.000000 1.024264
v -1.024264 19.500000 -1.024264
v 1.024264 19.500000 -1.024264
v 1.024264 19.500000 1.024264
v -1.024264 0.000000 -1.024264
v -1.024264 0.000000 1.024264
v -1.024264 0.500000 -1.024264
v 1.024264 0.000000 -1.024264
v 1.024264 0.500000 -1.024264
v 1.024264 0.000000 1.024264
v 1.024264 0.500000 1.024264
v -1.024264 0.500000 1.024264
v -1.278823 0.000000 -1.278823
v -1.278823 0.000000 1.278823
v -1.278823 0.500000 -1.278823
v 1.278823 0.000000 -1.278823
v 1.278823 0.500000 -1.278823
v 1.278823 0.000000 1.278823
v 1.278823 0.500000 1.278823
v -1.278823 0.500000 1.278823
v -1.278823 19.500000 1.278823
v -1.278823 20.000000 1.278823
v -1.278823 20.000000 -1.278823
v 1.278823 20.000000 -1.278823
v 1.278823 20.000000 1.278823
v -1.278823 19.500000 -1.278823
v 1.278823 19.500000 -1.278823
v 1.278823 19.500000 1.278823
vn -0.0000 1.0000 -0.0000
vn -0.0000 -1.0000 -0.0000
vn -0.0000 -0.0000 1.0000
vn 1.0000 -0.0000 -0.0000
vn -0.0000 -0.0000 -1.0000
vn -1.0000 -0.0000 -0.0000
vt 0.875000 0.750000
vt 0.625000 0.750000
vt 0.875000 0.500000
vt 0.609156 0.750000
vt 0.609156 1.000000
vt 0.609156 0.250000
vt 0.609156 0.500000
vt 0.375000 0.500000
vt 0.125000 0.750000
vt 0.125000 0.500000
vt 0.625000 0.500000
vt 0.381250 1.000000
vt 0.381250 0.750000
vt 0.375000 0.750000
vt 0.381250 0.500000
vt 0.381250 0.250000
vt 0.609156 0.000000
vt 0.381250 0.000000
vt 0.375000 1.000000
vt 0.375000 0.250000
vt 0.375000 0.000000
vt 0.625000 0.000000
vt 0.625000 0.250000
vt 0.625000 1.000000
s 0
f 2/1/1 21/2/1 6/2/1
f 4/3/1 18/1/1 2/1/1
f 16/4/2 17/5/2 13/5/2
f 14/6/2 23/7/2 15/7/2
f 7/8/2 1/9/2 3/10/2
f 4/3/1 6/2/1 8/11/1
f 9/12/1 31/13/1 12/13/1
f 7/8/2 30/14/2 5/14/2
f 11/15/1 27/16/1 10/16/1
f 1/9/2 25/10/2 3/10/2
f 16/4/3 9/12/3 12/13/3
f 15/7/4 12/13/4 11/15/4
f 14/6/5 11/15/5 10/16/5
f 13/17/6 10/16/6 9/18/6
f 19/3/1 42/1/1 18/1/1
f 21/2/1 44/11/1 20/11/1
f 23/7/2 48/4/2 24/4/2
f 17/17/2 46/6/2 22/6/2
f 13/17/2 22/6/2 14/6/2
f 8/11/1 19/3/1 4/3/1
f 15/7/2 24/4/2 16/4/2
f 6/2/1 20/11/1 8/11/1
f 28/8/2 38/14/2 30/14/2
f 30/14/2 34/9/2 26/9/2
f 32/12/1 39/13/1 31/13/1
f 29/15/1 35/16/1 27/16/1
f 5/14/2 26/9/2 1/9/2
f 10/16/1 32/18/1 9/18/1
f 12/13/1 29/15/1 11/15/1
f 3/10/2 28/8/2 7/8/2
f 39/13/3 34/19/3 38/14/3
f 37/15/4 38/14/4 36/8/4
f 35/16/5 36/8/5 33/20/5
f 40/18/6 33/20/6 34/21/6
f 25/10/2 36/8/2 28/8/2
f 27/16/1 40/18/1 32/18/1
f 26/9/2 33/10/2 25/10/2
f 31/13/1 37/15/1 29/15/1
f 42/22/6 46/6/6 41/17/6
f 43/23/5 47/7/5 46/6/5
f 44/11/4 48/4/4 47/7/4
f 45/2/3 41/5/3 48/4/3
f 22/6/2 47/7/2 23/7/2
f 24/4/2 41/5/2 17/5/2
f 18/1/1 45/2/1 21/2/1
f 20/11/1 43/3/1 19/3/1
f 2/1/1 18/1/1 21/2/1
f 4/3/1 19/3/1 18/1/1
f 16/4/2 24/4/2 17/5/2
f 14/6/2 22/6/2 23/7/2
f 7/8/2 5/14/2 1/9/2
f 4/3/1 2/1/1 6/2/1
f 9/12/1 32/12/1 31/13/1
f 7/8/2 28/8/2 30/14/2
f 11/15/1 29/15/1 27/16/1
f 1/9/2 26/9/2 25/10/2
f 16/4/3 13/5/3 9/12/3
f 15/7/4 16/4/4 12/13/4
f 14/6/5 15/7/5 11/15/5
f 13/17/6 14/6/6 10/16/6
f 19/3/1 43/3/1 42/1/1
f 21/2/1 45/2/1 44/11/1
f 23/7/2 47/7/2 48/4/2
f 17/17/2 41/17/2 46/6/2
f 13/17/2 17/17/2 22/6/2
f 8/11/1 20/11/1 19/3/1
f 15/7/2 23/7/2 24/4/2
f 6/2/1 21/2/1 20/11/1
f 28/8/2 36/8/2 38/14/2
f 30/14/2 38/14/2 34/9/2
f 32/12/1 40/12/1 39/13/1
f 29/15/1 37/15/1 35/16/1
f 5/14/2 30/14/2 26/9/2
f 10/16/1 27/16/1 32/18/1
f 12/13/1 31/13/1 29/15/1
f 3/10/2 25/10/2 28/8/2
f 39/13/3 40/12/3 34/19/3
f 37/15/4 39/13/4 38/14/4
f 35/16/5 37/15/5 36/8/5
f 40/18/6 35/16/6 33/20/6
f 25/10/2 33/10/2 36/8/2
f 27/16/1 35/16/1 40/18/1
f 26/9/2 34/9/2 33/10/2
f 31/13/1 39/13/1 37/15/1
f 42/22/6 43/23/6 46/6/6
f 43/23/5 44/11/5 47/7/5
f 44/11/4 45/2/4 48/4/4
f 45/2/3 42/24/3 41/5/3
f 22/6/2 46/6/2 47/7/2
f 24/4/2 48/4/2 41/5/2
f 18/1/1 42/1/1 45/2/1
f 20/11/1 44/11/1 43/3/1
