# Blender 5.0.1
# www.blender.org
o room
v 6.800002 0.000000 -20.000000
v -9.199998 0.000000 -20.000000
v 20.000000 0.000000 -9.200000
v 20.000000 0.000000 6.800000
v 20.000000 0.000000 -1.200000
v -1.199998 0.000000 -20.000000
v -1.199998 4.200000 -20.000000
v 20.000000 4.200000 -9.200000
v 20.000000 4.200000 -1.200000
v 6.800002 4.200000 -20.000000
v 20.000000 4.200000 6.800000
v -9.199998 4.200000 -20.000000
v -20.000000 0.000000 6.800000
v -9.200002 0.000000 20.000000
v -20.000000 0.000000 -1.200000
v -1.200002 0.000000 20.000000
v -20.000000 0.000000 -9.200000
v 6.799998 0.000000 20.000000
v -20.000000 4.200000 -1.200000
v -9.200002 4.200000 20.000000
v 6.799998 4.200000 20.000000
v -20.000000 4.200000 6.800000
v -1.200002 4.200000 20.000000
v -20.000000 4.200000 -9.200000
v 20.000000 0.000000 9.200000
v 20.000000 0.000000 -6.800000
v 20.000000 0.000000 1.200000
v 1.200002 0.000000 -20.000000
v -6.799998 0.000000 -20.000000
v 9.200002 0.000000 -20.000000
v 20.000000 4.200000 1.200000
v -6.799998 4.200000 -20.000000
v 9.200002 4.200000 -20.000000
v 1.200002 4.200000 -20.000000
v 20.000000 4.200000 -6.800000
v 20.000000 4.200000 9.200000
v -20.000000 0.000000 9.200000
v -20.000000 0.000000 -6.800000
v -20.000000 0.000000 1.200000
v 9.199998 0.000000 20.000000
v 1.199998 0.000000 20.000000
v -6.800002 0.000000 20.000000
v -20.000000 4.200000 9.200000
v -20.000000 4.200000 -6.800000
v -20.000000 4.200000 1.200000
v -6.800002 4.200000 20.000000
v 9.199998 4.200000 20.000000
v 1.199998 4.200000 20.000000
v -20.000000 0.000000 20.000000
v -20.000000 20.000000 20.000000
v -20.000000 0.000000 -20.000000
v -20.000000 20.000000 -20.000000
v 20.000000 0.000000 20.000000
v 20.000000 20.000000 20.000000
v 20.000000 0.000000 -20.000000
v 20.000000 20.000000 -20.000000
v 22.000000 0.000000 -1.200000
v 22.000000 0.000000 1.200000
v -1.200000 0.000000 22.000000
v 1.200000 0.000000 22.000000
v -22.000000 0.000000 -1.200000
v -22.000000 0.000000 1.200000
v -1.200000 0.000000 -22.000000
v 1.200000 0.000000 -22.000000
vn 1.0000 -0.0000 -0.0000
vn -0.0000 -0.0000 1.0000
vn -1.0000 -0.0000 -0.0000
vn -0.0000 -0.0000 -1.0000
vn -0.0000 1.0000 -0.0000
vn -0.0000 -1.0000 -0.0000
vt 0.427500 0.117500
vt 0.427500 0.132500
vt 0.625000 0.000000
vt 0.427500 0.382500
vt 0.427500 0.417500
vt 0.625000 0.250000
vt 0.427500 0.632500
vt 0.427500 0.667500
vt 0.625000 0.500000
vt 0.625000 0.750000
vt 0.427500 0.867500
vt 0.427500 0.882500
vt 0.125000 0.682500
vt 0.307500 0.750000
vt 0.375000 0.667500
vt 0.875000 0.500000
vt 0.375000 0.632500
vt 0.375000 0.617500
vt 0.257500 0.750000
vt 0.242500 0.750000
vt 0.125000 0.617500
vt 0.125000 0.632500
vt 0.242500 0.500000
vt 0.257500 0.500000
vt 0.427500 0.082500
vt 0.375000 0.082500
vt 0.375000 0.117500
vt 0.375000 0.000000
vt 0.375000 0.067500
vt 0.427500 0.067500
vt 0.375000 0.250000
vt 0.427500 0.182500
vt 0.375000 0.182500
vt 0.375000 0.132500
vt 0.375000 0.167500
vt 0.427500 0.167500
vt 0.375000 0.382500
vt 0.375000 0.417500
vt 0.375000 0.332500
vt 0.375000 0.367500
vt 0.427500 0.367500
vt 0.427500 0.332500
vt 0.375000 0.317500
vt 0.427500 0.317500
vt 0.375000 0.500000
vt 0.427500 0.432500
vt 0.375000 0.432500
vt 0.375000 0.582500
vt 0.427500 0.617500
vt 0.427500 0.582500
vt 0.375000 0.567500
vt 0.427500 0.567500
vt 0.375000 0.750000
vt 0.427500 0.682500
vt 0.375000 0.682500
vt 0.427500 0.932500
vt 0.375000 0.932500
vt 0.375000 1.000000
vt 0.625000 1.000000
vt 0.375000 0.817500
vt 0.427500 0.817500
vt 0.375000 0.882500
vt 0.375000 0.917500
vt 0.427500 0.917500
vt 0.427500 0.832500
vt 0.375000 0.832500
vt 0.375000 0.867500
vt 0.192500 0.500000
vt 0.125000 0.500000
vt 0.125000 0.567500
vt 0.125000 0.582500
vt 0.207500 0.500000
vt 0.125000 0.667500
vt 0.292500 0.500000
vt 0.125000 0.750000
vt 0.192500 0.750000
vt 0.307500 0.500000
vt 0.207500 0.750000
vt 0.292500 0.750000
vt 0.875000 0.750000
s 0
f 45/1/1 19/2/1 50/3/1
f 34/4/2 10/5/2 52/6/2
f 31/7/3 11/8/3 56/9/3
f 54/10/4 48/11/4 23/12/4
f 37/13/5 40/14/5 4/15/5
f 54/10/6 52/16/6 56/9/6
f 27/17/5 57/18/5 5/18/5
f 41/19/5 59/20/5 60/19/5
f 15/21/5 62/22/5 39/22/5
f 6/23/5 64/24/5 63/23/5
f 22/25/1 13/26/1 39/27/1
f 22/25/1 39/27/1 45/1/1
f 49/28/1 37/29/1 43/30/1
f 50/3/1 49/28/1 43/30/1
f 51/31/1 52/6/1 50/3/1
f 24/32/1 17/33/1 51/31/1
f 15/34/1 38/35/1 44/36/1
f 24/32/1 51/31/1 50/3/1
f 19/2/1 15/34/1 44/36/1
f 44/36/1 24/32/1 50/3/1
f 50/3/1 43/30/1 22/25/1
f 50/3/1 22/25/1 45/1/1
f 19/2/1 44/36/1 50/3/1
f 34/4/2 28/37/2 1/38/2
f 34/4/2 1/38/2 10/5/2
f 29/39/2 6/40/2 7/41/2
f 32/42/2 29/39/2 7/41/2
f 51/31/2 2/43/2 12/44/2
f 52/6/2 51/31/2 12/44/2
f 55/45/2 56/9/2 52/6/2
f 33/46/2 30/47/2 55/45/2
f 33/46/2 55/45/2 52/6/2
f 52/6/2 12/44/2 32/42/2
f 52/6/2 32/42/2 7/41/2
f 10/5/2 33/46/2 52/6/2
f 52/6/2 7/41/2 34/4/2
f 31/7/3 27/17/3 4/15/3
f 31/7/3 4/15/3 11/8/3
f 26/48/3 5/18/3 9/49/3
f 35/50/3 26/48/3 9/49/3
f 55/45/3 3/51/3 8/52/3
f 56/9/3 55/45/3 8/52/3
f 53/53/3 54/10/3 56/9/3
f 36/54/3 25/55/3 53/53/3
f 36/54/3 53/53/3 56/9/3
f 56/9/3 8/52/3 35/50/3
f 56/9/3 35/50/3 9/49/3
f 11/8/3 36/54/3 56/9/3
f 56/9/3 9/49/3 31/7/3
f 20/56/4 14/57/4 49/58/4
f 49/58/4 50/59/4 54/10/4
f 54/10/4 53/53/4 40/60/4
f 54/10/4 40/60/4 47/61/4
f 20/56/4 49/58/4 54/10/4
f 16/62/4 42/63/4 46/64/4
f 46/64/4 20/56/4 54/10/4
f 54/10/4 47/61/4 21/65/4
f 21/65/4 18/66/4 41/67/4
f 21/65/4 41/67/4 48/11/4
f 23/12/4 16/62/4 46/64/4
f 54/10/4 21/65/4 48/11/4
f 23/12/4 46/64/4 54/10/4
f 2/68/5 51/69/5 17/70/5
f 2/68/5 17/70/5 38/71/5
f 29/72/5 2/68/5 38/71/5
f 29/72/5 38/71/5 15/21/5
f 6/23/5 29/72/5 15/21/5
f 6/23/5 15/21/5 39/22/5
f 28/24/5 6/23/5 39/22/5
f 28/24/5 39/22/5 13/73/5
f 1/74/5 28/24/5 13/73/5
f 37/13/5 49/75/5 14/76/5
f 1/74/5 13/73/5 37/13/5
f 3/51/5 55/45/5 30/77/5
f 30/77/5 1/74/5 37/13/5
f 37/13/5 14/76/5 42/78/5
f 37/13/5 42/78/5 16/20/5
f 3/51/5 30/77/5 37/13/5
f 26/48/5 3/51/5 37/13/5
f 37/13/5 16/20/5 41/19/5
f 37/13/5 41/19/5 18/79/5
f 5/18/5 26/48/5 37/13/5
f 27/17/5 5/18/5 37/13/5
f 37/13/5 18/79/5 40/14/5
f 40/14/5 53/53/5 25/55/5
f 4/15/5 27/17/5 37/13/5
f 40/14/5 25/55/5 4/15/5
f 54/10/6 50/80/6 52/16/6
f 27/17/5 58/17/5 57/18/5
f 41/19/5 16/20/5 59/20/5
f 15/21/5 61/21/5 62/22/5
f 6/23/5 28/24/5 64/24/5
