# Blender 5.0.1
# www.blender.org
o tunnel
v 1.400000 -0.400000 -2.400000
v 1.400000 4.400000 -2.400000
v 1.400000 -0.400000 0.400000
v 1.400000 4.400000 0.400000
v -1.400000 -0.400000 -2.400000
v -1.400000 4.400000 -2.400000
v -1.400000 -0.400000 0.400000
v -1.400000 4.400000 0.400000
v -1.000000 4.000000 0.400000
v 1.000000 4.000000 0.400000
v 1.000000 -0.200000 0.400000
v -1.000000 -0.200000 0.400000
v 1.000000 4.000000 -2.400000
v -1.000000 4.000000 -2.400000
v 1.000000 -0.200000 -2.400000
v -1.000000 -0.200000 -2.400000
vn 1.0000 -0.0000 -0.0000
vn -0.0000 -0.0000 1.0000
vn -1.0000 -0.0000 -0.0000
vn -0.0000 -0.0000 -1.0000
vn -0.0000 -1.0000 -0.0000
vn -0.0000 1.0000 -0.0000
vt 0.625000 0.000000
vt 0.375000 0.250000
vt 0.375000 0.000000
vt 0.625000 0.250000
vt 0.625000 0.500000
vt 0.604167 0.285714
vt 0.395833 0.464286
vt 0.375000 0.500000
vt 0.375000 0.750000
vt 0.375000 1.000000
vt 0.395833 0.785714
vt 0.395833 0.964286
vt 0.125000 0.750000
vt 0.125000 0.500000
vt 0.875000 0.500000
vt 0.625000 0.750000
vt 0.300000 -0.000000
vt 0.700000 1.000000
vt 0.700000 0.000000
vt 0.300000 1.000000
vt 0.395833 0.285714
vt 0.604167 0.464286
vt 0.875000 0.750000
s 0
f 2/1/1 3/2/1 1/3/1
f 4/4/2 8/5/2 10/6/2
f 3/2/2 12/7/2 7/8/2
f 8/5/3 5/9/3 7/8/3
f 1/10/4 16/11/4 15/12/4
f 7/8/5 1/13/5 3/14/5
f 4/15/6 6/16/6 8/5/6
f 11/17/3 13/18/3 15/19/3
f 16/17/1 9/18/1 12/19/1
f 12/19/6 15/19/6 16/17/6
f 9/19/5 13/20/5 10/18/5
f 2/1/1 4/4/1 3/2/1
f 11/21/2 3/2/2 4/4/2
f 8/5/2 7/8/2 12/7/2
f 8/5/2 12/7/2 9/22/2
f 10/6/2 11/21/2 4/4/2
f 8/5/2 9/22/2 10/6/2
f 3/2/2 11/21/2 12/7/2
f 8/5/3 6/16/3 5/9/3
f 1/10/4 5/9/4 16/11/4
f 7/8/5 5/9/5 1/13/5
f 4/15/6 2/23/6 6/16/6
f 11/17/3 10/20/3 13/18/3
f 16/17/1 14/20/1 9/18/1
f 12/19/6 11/21/6 15/19/6
f 9/19/5 14/17/5 13/20/5
